Antonio-Light.ufo
<glyph name="dollar" format="1">
  <advance width="867"/>
  <unicode hex="0024"/>
  <outline>
    <contour>
      <point x="399" y="-263" type="line"/>
      <point x="512" y="-263" type="line"/>
      <point x="512" y="23" type="line"/>
      <point x="399" y="23" type="line"/>
    </contour>
    <contour>
      <point x="380" y="1474" type="line"/>
      <point x="493" y="1474" type="line"/>
      <point x="493" y="1760" type="line"/>
      <point x="380" y="1760" type="line"/>
    </contour>
    <component base="s" yOffset="2"/>
  </outline>
</glyph>
<glyph name="percent" format="1">
  <advance width="2158"/>
  <unicode hex="0025"/>
  <outline>
    <contour>
      <point x="465" y="726" type="curve" smooth="yes"/>
      <point x="362" y="726"/>
      <point x="332" y="774"/>
      <point x="332" y="936" type="curve" smooth="yes"/>
      <point x="332" y="1435" type="line" smooth="yes"/>
      <point x="332" y="1592"/>
      <point x="362" y="1638"/>
      <point x="465" y="1638" type="curve" smooth="yes"/>
      <point x="568" y="1638"/>
      <point x="598" y="1592"/>
      <point x="598" y="1435" type="curve" smooth="yes"/>
      <point x="598" y="936" type="line" smooth="yes"/>
      <point x="598" y="774"/>
      <point x="568" y="726"/>
    </contour>
    <contour>
      <point x="465" y="581" type="curve" smooth="yes"/>
      <point x="691" y="581"/>
      <point x="758" y="679"/>
      <point x="758" y="1011" type="curve" smooth="yes"/>
      <point x="758" y="1364" type="line" smooth="yes"/>
      <point x="758" y="1686"/>
      <point x="691" y="1782"/>
      <point x="465" y="1782" type="curve" smooth="yes"/>
      <point x="239" y="1782"/>
      <point x="172" y="1686"/>
      <point x="172" y="1364" type="curve" smooth="yes"/>
      <point x="172" y="1011" type="line" smooth="yes"/>
      <point x="172" y="679"/>
      <point x="239" y="581"/>
    </contour>
    <contour>
      <point x="1693" y="125" type="curve" smooth="yes"/>
      <point x="1590" y="125"/>
      <point x="1560" y="173"/>
      <point x="1560" y="335" type="curve" smooth="yes"/>
      <point x="1560" y="834" type="line" smooth="yes"/>
      <point x="1560" y="991"/>
      <point x="1590" y="1037"/>
      <point x="1693" y="1037" type="curve" smooth="yes"/>
      <point x="1796" y="1037"/>
      <point x="1826" y="991"/>
      <point x="1826" y="834" type="curve" smooth="yes"/>
      <point x="1826" y="335" type="line" smooth="yes"/>
      <point x="1826" y="173"/>
      <point x="1796" y="125"/>
    </contour>
    <contour>
      <point x="1693" y="-20" type="curve" smooth="yes"/>
      <point x="1919" y="-20"/>
      <point x="1986" y="78"/>
      <point x="1986" y="410" type="curve" smooth="yes"/>
      <point x="1986" y="763" type="line" smooth="yes"/>
      <point x="1986" y="1085"/>
      <point x="1919" y="1181"/>
      <point x="1693" y="1181" type="curve" smooth="yes"/>
      <point x="1467" y="1181"/>
      <point x="1400" y="1085"/>
      <point x="1400" y="763" type="curve" smooth="yes"/>
      <point x="1400" y="410" type="line" smooth="yes"/>
      <point x="1400" y="78"/>
      <point x="1467" y="-20"/>
    </contour>
    <contour>
      <point x="645" y="0" type="line"/>
      <point x="804" y="0" type="line"/>
      <point x="1518" y="1760" type="line"/>
      <point x="1368" y="1760" type="line"/>
    </contour>
  </outline>
</glyph>
<glyph name="quotesingle" format="1">
  <advance width="407"/>
  <unicode hex="0027"/>
  <outline>
    <contour>
      <point x="180" y="1125" type="line"/>
      <point x="226" y="1125" type="line"/>
      <point x="291" y="1761" type="line"/>
      <point x="120" y="1761" type="line"/>
    </contour>
  </outline>
</glyph>
<glyph name="comma" format="1">
  <advance width="445"/>
  <unicode hex="002C"/>
  <outline>
    <contour>
      <point x="168" y="-348" type="line"/>
      <point x="259" y="-348" type="line"/>
      <point x="360" y="9" type="line"/>
      <point x="360" y="214" type="line"/>
      <point x="120" y="214" type="line"/>
      <point x="120" y="0" type="line"/>
      <point x="243" y="0" type="line"/>
    </contour>
  </outline>
</glyph>
<glyph name="zero" format="1">
  <advance width="856"/>
  <unicode hex="0030"/>
  <outline>
    <contour>
      <point x="424" y="119" type="curve" smooth="yes"/>
      <point x="342" y="119"/>
      <point x="268" y="119"/>
      <point x="268" y="470" type="curve" smooth="yes"/>
      <point x="268" y="1328" type="line" smooth="yes"/>
      <point x="268" y="1639"/>
      <point x="356" y="1640"/>
      <point x="424" y="1640" type="curve" smooth="yes"/>
      <point x="494" y="1640"/>
      <point x="588" y="1639"/>
      <point x="588" y="1327" type="curve" smooth="yes"/>
      <point x="588" y="470" type="line" smooth="yes"/>
      <point x="588" y="119"/>
      <point x="501" y="119"/>
    </contour>
    <contour>
      <point x="426" y="-21" type="curve" smooth="yes"/>
      <point x="714" y="-21"/>
      <point x="756" y="162"/>
      <point x="756" y="475" type="curve" smooth="yes"/>
      <point x="756" y="1316" type="line" smooth="yes"/>
      <point x="756" y="1619"/>
      <point x="708" y="1781"/>
      <point x="426" y="1781" type="curve" smooth="yes"/>
      <point x="144" y="1781"/>
      <point x="100" y="1619"/>
      <point x="100" y="1316" type="curve" smooth="yes"/>
      <point x="100" y="475" type="line" smooth="yes"/>
      <point x="100" y="162"/>
      <point x="138" y="-21"/>
    </contour>
  </outline>
</glyph>
<glyph name="six" format="1">
  <advance width="856"/>
  <unicode hex="0036"/>
  <outline>
    <contour>
      <point x="452" y="-20" type="curve" smooth="yes"/>
      <point x="714" y="-20"/>
      <point x="784" y="146"/>
      <point x="784" y="449" type="curve" smooth="yes"/>
      <point x="784" y="562" type="line" smooth="yes"/>
      <point x="784" y="955"/>
      <point x="710" y="1112"/>
      <point x="458" y="1102" type="curve" smooth="yes"/>
      <point x="396" y="1100"/>
      <point x="320" y="1071"/>
      <point x="278" y="1014" type="curve"/>
      <point x="278" y="1257" type="line" smooth="yes"/>
      <point x="278" y="1558"/>
      <point x="306" y="1638"/>
      <point x="433" y="1638" type="curve" smooth="yes"/>
      <point x="557.435694754" y="1638.0"/>
      <point x="566.49094218" y="1558.90856433"/>
      <point x="566.975950379" y="1282.24714283" type="curve" smooth="yes"/>
      <point x="566.993740496" y="1272.09919308"/>
      <point x="567.0" y="1261.68542778"/>
      <point x="567" y="1251" type="curve"/>
      <point x="735" y="1251" type="line"/>
      <point x="735.0" y="1265.02734365"/>
      <point x="734.946242369" y="1278.76051359"/>
      <point x="734.827994149" y="1292.20129866" type="curve" smooth="yes"/>
      <point x="731.886211569" y="1626.58153382"/>
      <point x="689.030152448" y="1780.0"/>
      <point x="441" y="1780" type="curve" smooth="yes"/>
      <point x="183" y="1780"/>
      <point x="110" y="1625"/>
      <point x="110" y="1262" type="curve" smooth="yes"/>
      <point x="110" y="509" type="line" smooth="yes"/>
      <point x="110" y="206"/>
      <point x="170" y="-20"/>
    </contour>
    <contour>
      <point x="452" y="124" type="curve" smooth="yes"/>
      <point x="310" y="124"/>
      <point x="278" y="236"/>
      <point x="278" y="497" type="curve" smooth="yes"/>
      <point x="278" y="902" type="line"/>
      <point x="295" y="914"/>
      <point x="367" y="961"/>
      <point x="458" y="961" type="curve" smooth="yes"/>
      <point x="587" y="961"/>
      <point x="616" y="858"/>
      <point x="616" y="556" type="curve" smooth="yes"/>
      <point x="616" y="444" type="line" smooth="yes"/>
      <point x="616" y="185"/>
      <point x="580" y="124"/>
    </contour>
  </outline>
</glyph>
<glyph name="seven" format="1">
  <advance width="856"/>
  <unicode hex="0037"/>
  <outline>
    <contour>
      <point x="430" y="1" type="line"/>
      <point x="458.5" y="446.5"/>
      <point x="544.5" y="856.0"/>
      <point x="623.375" y="1154.125" type="curve" smooth="yes"/>
      <point x="702.25" y="1452.25"/>
      <point x="774.0" y="1639.0"/>
      <point x="774" y="1639" type="curve"/>
      <point x="774" y="1761" type="line"/>
      <point x="118" y="1761" type="line"/>
      <point x="118" y="1625" type="line"/>
      <point x="621" y="1625" type="line"/>
      <point x="621.0" y="1625.0"/>
      <point x="548.0" y="1457.5"/>
      <point x="465.5" y="1170.75" type="curve" smooth="yes"/>
      <point x="383.0" y="884.0"/>
      <point x="291.0" y="478.0"/>
      <point x="253" y="1" type="curve"/>
    </contour>
  </outline>
</glyph>
<glyph name="eight" format="1">
  <advance width="856"/>
  <unicode hex="0038"/>
  <outline>
    <contour>
      <point x="433" y="-20" type="curve" smooth="yes"/>
      <point x="656.128482342" y="-20.0"/>
      <point x="739.584434503" y="110.422693745"/>
      <point x="745.640760624" y="416.638339967" type="curve" smooth="yes"/>
      <point x="745.881558229" y="428.813376897"/>
      <point x="746.0" y="441.266313016"/>
      <point x="746" y="454" type="curve" smooth="yes"/>
      <point x="746" y="651"/>
      <point x="689" y="869"/>
      <point x="597" y="936" type="curve"/>
      <point x="703" y="1008"/>
      <point x="742" y="1146"/>
      <point x="742" y="1346" type="curve" smooth="yes"/>
      <point x="742" y="1649"/>
      <point x="667" y="1780"/>
      <point x="435" y="1780" type="curve" smooth="yes"/>
      <point x="203" y="1780"/>
      <point x="126" y="1649"/>
      <point x="126" y="1346" type="curve" smooth="yes"/>
      <point x="126" y="1149"/>
      <point x="160" y="1006"/>
      <point x="264" y="932" type="curve"/>
      <point x="166" y="866"/>
      <point x="110" y="654"/>
      <point x="110" y="454" type="curve" smooth="yes"/>
      <point x="110.0" y="438.078867018"/>
      <point x="110.208017975" y="422.596629105"/>
      <point x="110.629518536" y="407.547712358" type="curve" smooth="yes"/>
      <point x="119.023953814" y="107.839552302"/>
      <point x="212.092200756" y="-20.0"/>
    </contour>
    <contour>
      <point x="435" y="120" type="curve" smooth="yes"/>
      <point x="308.592461944" y="120.0"/>
      <point x="279.570909969" y="196.585095851"/>
      <point x="278.063459955" y="432.498308221" type="curve" smooth="yes"/>
      <point x="278.020618706" y="439.202886528"/>
      <point x="278.0" y="446.036150694"/>
      <point x="278" y="453" type="curve" smooth="yes"/>
      <point x="278" y="744"/>
      <point x="358" y="867"/>
      <point x="435" y="867" type="curve" smooth="yes"/>
      <point x="517" y="867"/>
      <point x="578" y="745"/>
      <point x="578" y="457" type="curve" smooth="yes"/>
      <point x="578.0" y="451.042565323"/>
      <point x="577.992063842" y="445.180893621"/>
      <point x="577.974998899" y="439.413731417" type="curve" smooth="yes"/>
      <point x="577.250163927" y="194.453006209"/>
      <point x="560.055785179" y="120.0"/>
    </contour>
    <contour>
      <point x="433" y="990" type="curve" smooth="yes"/>
      <point x="351" y="990"/>
      <point x="294" y="1055"/>
      <point x="294" y="1343" type="curve" smooth="yes"/>
      <point x="294" y="1605"/>
      <point x="345" y="1640"/>
      <point x="433" y="1640" type="curve" smooth="yes"/>
      <point x="523" y="1640"/>
      <point x="574" y="1619"/>
      <point x="574" y="1347" type="curve" smooth="yes"/>
      <point x="574" y="1056"/>
      <point x="510" y="990"/>
    </contour>
  </outline>
</glyph>
<glyph name="nine" format="1">
  <advance width="856"/>
  <unicode hex="0039"/>
  <outline>
    <contour>
      <point x="393" y="-20" type="curve" smooth="yes"/>
      <point x="651" y="-20"/>
      <point x="691" y="177"/>
      <point x="691" y="540" type="curve" smooth="yes"/>
      <point x="691" y="1251" type="line" smooth="yes"/>
      <point x="691" y="1554"/>
      <point x="663" y="1780"/>
      <point x="381" y="1780" type="curve" smooth="yes"/>
      <point x="99" y="1780"/>
      <point x="67" y="1554"/>
      <point x="67" y="1251" type="curve" smooth="yes"/>
      <point x="67" y="1219" type="line" smooth="yes"/>
      <point x="67" y="856"/>
      <point x="122" y="662"/>
      <point x="365" y="662" type="curve" smooth="yes"/>
      <point x="427" y="662"/>
      <point x="488" y="678"/>
      <point x="523" y="710" type="curve"/>
      <point x="523" y="519" type="line" smooth="yes"/>
      <point x="523" y="238"/>
      <point x="530" y="120"/>
      <point x="407" y="120" type="curve" smooth="yes"/>
      <point x="291.280795634" y="120.0"/>
      <point x="267.286795924" y="174.84599866"/>
      <point x="266.05173753" y="483.160834401" type="curve" smooth="yes"/>
      <point x="266.016721957" y="491.901976137"/>
      <point x="266.0" y="500.846855879"/>
      <point x="266" y="510" type="curve"/>
      <point x="105" y="510" type="line"/>
      <point x="105.0" y="494.707031451"/>
      <point x="105.10649313" y="479.76194046"/>
      <point x="105.327555073" y="465.162558555" type="curve" smooth="yes"/>
      <point x="110.353707556" y="133.225189637"/>
      <point x="174.605500907" y="-20.0"/>
    </contour>
    <contour>
      <point x="385" y="793" type="curve" smooth="yes"/>
      <point x="256" y="793"/>
      <point x="235" y="896"/>
      <point x="235" y="1198" type="curve" smooth="yes"/>
      <point x="235" y="1264" type="line" smooth="yes"/>
      <point x="235" y="1509"/>
      <point x="253" y="1636"/>
      <point x="381" y="1636" type="curve" smooth="yes"/>
      <point x="503" y="1636"/>
      <point x="523" y="1510"/>
      <point x="523" y="1263" type="curve" smooth="yes"/>
      <point x="523" y="830" type="line"/>
      <point x="504" y="813"/>
      <point x="459" y="793"/>
    </contour>
  </outline>
</glyph>
<glyph name="colon" format="1">
  <advance width="555"/>
  <unicode hex="003A"/>
  <outline>
    <contour>
      <point x="162" y="270" type="line"/>
      <point x="393" y="270" type="line"/>
      <point x="393" y="508" type="line"/>
      <point x="162" y="508" type="line"/>
    </contour>
    <contour>
      <point x="162" y="1069" type="line"/>
      <point x="393" y="1069" type="line"/>
      <point x="393" y="1307" type="line"/>
      <point x="162" y="1307" type="line"/>
    </contour>
  </outline>
</glyph>
<glyph name="greater" format="1">
  <advance width="730"/>
  <unicode hex="003E"/>
  <outline>
    <contour>
      <point x="85" y="280" type="line"/>
      <point x="663" y="671" type="line"/>
      <point x="663" y="831" type="line"/>
      <point x="85" y="1226" type="line"/>
      <point x="85" y="1048" type="line"/>
      <point x="541" y="749" type="line"/>
      <point x="85" y="465" type="line"/>
    </contour>
  </outline>
</glyph>
<glyph name="at" format="1">
  <advance width="1352"/>
  <unicode hex="0040"/>
  <outline>
    <contour>
      <point x="662" y="-54" type="curve" smooth="yes"/>
      <point x="731" y="-54"/>
      <point x="789" y="-44"/>
      <point x="881" y="-25" type="curve"/>
      <point x="862" y="96" type="line"/>
      <point x="789" y="74"/>
      <point x="720" y="68"/>
      <point x="665" y="68" type="curve" smooth="yes"/>
      <point x="375" y="68"/>
      <point x="229" y="269"/>
      <point x="229" y="833" type="curve" smooth="yes"/>
      <point x="229" y="1315"/>
      <point x="345" y="1653"/>
      <point x="720" y="1653" type="curve" smooth="yes"/>
      <point x="1100" y="1653"/>
      <point x="1139" y="1286"/>
      <point x="1139" y="942" type="curve" smooth="yes"/>
      <point x="1139" y="634"/>
      <point x="1115" y="502"/>
      <point x="1045" y="502" type="curve" smooth="yes"/>
      <point x="990" y="502"/>
      <point x="973" y="571"/>
      <point x="973" y="697" type="curve" smooth="yes"/>
      <point x="973" y="1262" type="line"/>
      <point x="892" y="1262" type="line"/>
      <point x="862" y="1140" type="line"/>
      <point x="823" y="1199"/>
      <point x="755" y="1283"/>
      <point x="639" y="1283" type="curve" smooth="yes"/>
      <point x="473" y="1283"/>
      <point x="386" y="1091"/>
      <point x="386" y="808" type="curve" smooth="yes"/>
      <point x="386" y="471"/>
      <point x="532" y="361"/>
      <point x="675" y="361" type="curve" smooth="yes"/>
      <point x="773" y="361"/>
      <point x="857" y="454"/>
      <point x="881" y="587" type="curve"/>
      <point x="898" y="491"/>
      <point x="962" y="378"/>
      <point x="1042" y="378" type="curve" smooth="yes"/>
      <point x="1203" y="378"/>
      <point x="1266" y="612"/>
      <point x="1266" y="910" type="curve" smooth="yes"/>
      <point x="1266" y="1428"/>
      <point x="1119" y="1781"/>
      <point x="733" y="1781" type="curve" smooth="yes"/>
      <point x="254" y="1781"/>
      <point x="92" y="1390"/>
      <point x="92" y="836" type="curve" smooth="yes"/>
      <point x="92" y="249"/>
      <point x="284" y="-54"/>
    </contour>
    <contour>
      <point x="680" y="485" type="curve" smooth="yes"/>
      <point x="572" y="485"/>
      <point x="504" y="563"/>
      <point x="504" y="814" type="curve" smooth="yes"/>
      <point x="504" y="1175"/>
      <point x="629" y="1231"/>
      <point x="854" y="1062" type="curve"/>
      <point x="854" y="759" type="line" smooth="yes"/>
      <point x="854" y="597"/>
      <point x="777" y="485"/>
    </contour>
  </outline>
</glyph>
<glyph name="B" format="1">
  <advance width="923"/>
  <unicode hex="0042"/>
  <outline>
    <contour>
      <point x="172" y="0" type="line"/>
      <point x="488" y="0" type="line" smooth="yes"/>
      <point x="737" y="0"/>
      <point x="804" y="151"/>
      <point x="808" y="489" type="curve" smooth="yes"/>
      <point x="808" y="522" type="line" smooth="yes"/>
      <point x="808" y="718"/>
      <point x="780" y="895"/>
      <point x="663" y="949" type="curve"/>
      <point x="763" y="1010"/>
      <point x="783" y="1134"/>
      <point x="783" y="1337" type="curve" smooth="yes"/>
      <point x="783" y="1365" type="line" smooth="yes"/>
      <point x="780" y="1647"/>
      <point x="722" y="1760"/>
      <point x="449" y="1760" type="curve" smooth="yes"/>
      <point x="172" y="1760" type="line"/>
    </contour>
    <contour>
      <point x="340" y="141" type="line"/>
      <point x="340" y="878" type="line"/>
      <point x="494" y="878" type="line" smooth="yes"/>
      <point x="616" y="878"/>
      <point x="640" y="780"/>
      <point x="640" y="533" type="curve" smooth="yes"/>
      <point x="640" y="524" type="line" smooth="yes"/>
      <point x="640" y="223"/>
      <point x="611" y="141"/>
      <point x="488" y="141" type="curve" smooth="yes"/>
    </contour>
    <contour>
      <point x="340" y="1011" type="line"/>
      <point x="340" y="1616" type="line"/>
      <point x="449" y="1616" type="line" smooth="yes"/>
      <point x="569" y="1616"/>
      <point x="613" y="1585"/>
      <point x="615" y="1350" type="curve" smooth="yes"/>
      <point x="615" y="1337" type="line" smooth="yes"/>
      <point x="615" y="1036"/>
      <point x="592" y="1011"/>
      <point x="469" y="1011" type="curve" smooth="yes"/>
    </contour>
    <contour>
      <point x="451" y="1760" type="move" name="top"/>
    </contour>
  </outline>
</glyph>
<glyph name="C" format="1">
  <advance width="887"/>
  <unicode hex="0043"/>
  <outline>
    <contour>
      <point x="451" y="-21" type="curve" smooth="yes"/>
      <point x="709" y="-21"/>
      <point x="766" y="177"/>
      <point x="766" y="540" type="curve" smooth="yes"/>
      <point x="766" y="698" type="line"/>
      <point x="598" y="698" type="line"/>
      <point x="598" y="539" type="line" smooth="yes"/>
      <point x="598" y="238"/>
      <point x="574" y="120"/>
      <point x="451" y="120" type="curve" smooth="yes"/>
      <point x="322" y="120"/>
      <point x="296" y="237"/>
      <point x="296" y="539" type="curve" smooth="yes"/>
      <point x="296" y="1264" type="line" smooth="yes"/>
      <point x="296" y="1509"/>
      <point x="329" y="1636"/>
      <point x="457" y="1636" type="curve" smooth="yes"/>
      <point x="579" y="1636"/>
      <point x="598" y="1510"/>
      <point x="598" y="1263" type="curve" smooth="yes"/>
      <point x="598" y="1084" type="line"/>
      <point x="766" y="1084" type="line"/>
      <point x="766" y="1251" type="line" smooth="yes"/>
      <point x="766" y="1554"/>
      <point x="739" y="1781"/>
      <point x="457" y="1781" type="curve" smooth="yes"/>
      <point x="175" y="1781"/>
      <point x="128" y="1554"/>
      <point x="128" y="1251" type="curve" smooth="yes"/>
      <point x="128" y="540" type="line" smooth="yes"/>
      <point x="128" y="177"/>
      <point x="193" y="-21"/>
    </contour>
    <contour>
      <point x="448" y="1760" type="move" name="top"/>
    </contour>
    <contour>
      <point x="448" y="0" type="move" name="bottom"/>
    </contour>
  </outline>
</glyph>
<glyph name="E" format="1">
  <advance width="742"/>
  <unicode hex="0045"/>
  <outline>
    <contour>
      <point x="152" y="0" type="line"/>
      <point x="637" y="0" type="line"/>
      <point x="637" y="136" type="line"/>
      <point x="320" y="136" type="line"/>
      <point x="320" y="828" type="line"/>
      <point x="619" y="828" type="line"/>
      <point x="619" y="966" type="line"/>
      <point x="320" y="966" type="line"/>
      <point x="320" y="1625" type="line"/>
      <point x="637" y="1625" type="line"/>
      <point x="637" y="1760" type="line"/>
      <point x="152" y="1760" type="line"/>
    </contour>
    <contour>
      <point x="671" y="10" type="move" name="ogonek"/>
    </contour>
    <contour>
      <point x="444" y="0" type="move" name="bottom"/>
    </contour>
    <contour>
      <point x="401" y="1760" type="move" name="top"/>
    </contour>
  </outline>
</glyph>
<glyph name="F" format="1">
  <advance width="715"/>
  <unicode hex="0046"/>
  <outline>
    <contour>
      <point x="150" y="0" type="line"/>
      <point x="318" y="0" type="line"/>
      <point x="318" y="876" type="line"/>
      <point x="617" y="876" type="line"/>
      <point x="617" y="1014" type="line"/>
      <point x="318" y="1014" type="line"/>
      <point x="318" y="1625" type="line"/>
      <point x="635" y="1625" type="line"/>
      <point x="635" y="1760" type="line"/>
      <point x="150" y="1760" type="line"/>
    </contour>
  </outline>
</glyph>
<glyph name="G" format="1">
  <advance width="901"/>
  <unicode hex="0047"/>
  <outline>
    <contour>
      <point x="422" y="-16" type="curve" smooth="yes"/>
      <point x="533" y="-16"/>
      <point x="600" y="28"/>
      <point x="644" y="113" type="curve"/>
      <point x="664" y="0" type="line"/>
      <point x="766" y="0" type="line"/>
      <point x="766" y="901" type="line"/>
      <point x="456" y="901" type="line"/>
      <point x="456" y="763" type="line"/>
      <point x="604" y="763" type="line"/>
      <point x="604" y="539" type="line" smooth="yes"/>
      <point x="604" y="238"/>
      <point x="574" y="120"/>
      <point x="451" y="120" type="curve" smooth="yes"/>
      <point x="322" y="120"/>
      <point x="296" y="237"/>
      <point x="296" y="539" type="curve" smooth="yes"/>
      <point x="296" y="1264" type="line" smooth="yes"/>
      <point x="296" y="1540"/>
      <point x="335" y="1636"/>
      <point x="457" y="1636" type="curve" smooth="yes"/>
      <point x="574" y="1636"/>
      <point x="598" y="1544"/>
      <point x="598" y="1365" type="curve" smooth="yes"/>
      <point x="598" y="1107" type="line"/>
      <point x="766" y="1107" type="line"/>
      <point x="766" y="1251" type="line" smooth="yes"/>
      <point x="766" y="1554"/>
      <point x="742" y="1781"/>
      <point x="460" y="1781" type="curve" smooth="yes"/>
      <point x="178" y="1781"/>
      <point x="128" y="1554"/>
      <point x="128" y="1251" type="curve" smooth="yes"/>
      <point x="128" y="529" type="line" smooth="yes"/>
      <point x="128" y="139"/>
      <point x="223" y="-16"/>
    </contour>
    <contour>
      <point x="461" y="1760" type="move" name="top"/>
    </contour>
    <contour>
      <point x="461" y="0" type="move" name="bottom"/>
    </contour>
  </outline>
</glyph>
<glyph name="H" format="1">
  <advance width="949"/>
  <unicode hex="0048"/>
  <outline>
    <contour>
      <point x="152" y="0" type="line"/>
      <point x="320" y="0" type="line"/>
      <point x="320" y="875" type="line"/>
      <point x="629" y="875" type="line"/>
      <point x="629" y="0" type="line"/>
      <point x="797" y="0" type="line"/>
      <point x="797" y="1760" type="line"/>
      <point x="629" y="1760" type="line"/>
      <point x="629" y="1006" type="line"/>
      <point x="320" y="1006" type="line"/>
      <point x="320" y="1760" type="line"/>
      <point x="152" y="1760" type="line"/>
    </contour>
  </outline>
</glyph>
<glyph name="J" format="1">
  <advance width="838"/>
  <unicode hex="004A"/>
  <outline>
    <contour>
      <point x="386" y="-21" type="curve" smooth="yes"/>
      <point x="586" y="-21"/>
      <point x="670" y="122"/>
      <point x="670" y="422" type="curve" smooth="yes"/>
      <point x="670" y="1760" type="line"/>
      <point x="502" y="1760" type="line"/>
      <point x="502" y="418" type="line" smooth="yes"/>
      <point x="502" y="243"/>
      <point x="505" y="120"/>
      <point x="380" y="120" type="curve" smooth="yes"/>
      <point x="257" y="120"/>
      <point x="258" y="250"/>
      <point x="258" y="402" type="curve" smooth="yes"/>
      <point x="258" y="566" type="line"/>
      <point x="90" y="566" type="line"/>
      <point x="90" y="389" type="line" smooth="yes"/>
      <point x="90" y="113"/>
      <point x="167" y="-21"/>
    </contour>
    <contour>
      <point x="449" y="1760" type="move" name="top"/>
    </contour>
  </outline>
</glyph>
<glyph name="K" format="1">
  <advance width="847"/>
  <unicode hex="004B"/>
  <outline>
    <contour>
      <point x="152" y="0" type="line"/>
      <point x="322" y="0" type="line"/>
      <point x="322" y="854" type="line"/>
      <point x="675" y="0" type="line"/>
      <point x="850" y="0" type="line"/>
      <point x="476" y="891" type="line"/>
      <point x="827" y="1760" type="line"/>
      <point x="661" y="1760" type="line"/>
      <point x="320" y="902" type="line"/>
      <point x="320" y="1760" type="line"/>
      <point x="152" y="1760" type="line"/>
    </contour>
    <contour>
      <point x="431" y="0" type="move" name="top"/>
    </contour>
    <contour>
      <point x="431" y="0" type="move" name="bottom"/>
    </contour>
  </outline>
</glyph>
<glyph name="M" format="1">
  <advance width="1220"/>
  <unicode hex="004D"/>
  <outline>
    <contour>
      <point x="152" y="0" type="line"/>
      <point x="301" y="0" type="line"/>
      <point x="301" y="738" type="line"/>
      <point x="280" y="1430" type="line"/>
      <point x="530" y="0" type="line"/>
      <point x="700" y="0" type="line"/>
      <point x="940" y="1430" type="line"/>
      <point x="919" y="738" type="line"/>
      <point x="919" y="0" type="line"/>
      <point x="1068" y="0" type="line"/>
      <point x="1068" y="1760" type="line"/>
      <point x="857" y="1760" type="line"/>
      <point x="615" y="212" type="line"/>
      <point x="363" y="1760" type="line"/>
      <point x="152" y="1760" type="line"/>
    </contour>
    <contour>
      <point x="616" y="1760" type="move" name="top"/>
    </contour>
  </outline>
</glyph>
<glyph name="R" format="1">
  <advance width="917"/>
  <unicode hex="0052"/>
  <outline>
    <contour>
      <point x="152" y="0" type="line"/>
      <point x="320" y="0" type="line"/>
      <point x="320" y="862" type="line"/>
      <point x="467" y="853" type="line" smooth="yes"/>
      <point x="619" y="853"/>
      <point x="620" y="796"/>
      <point x="620" y="569" type="curve" smooth="yes"/>
      <point x="620" y="137"/>
      <point x="621" y="37"/>
      <point x="640" y="0" type="curve"/>
      <point x="808" y="0" type="line"/>
      <point x="788" y="53"/>
      <point x="788" y="137"/>
      <point x="788" y="210" type="curve" smooth="yes"/>
      <point x="788" y="768"/>
      <point x="760" y="904"/>
      <point x="626" y="926" type="curve"/>
      <point x="750" y="961"/>
      <point x="788" y="1098"/>
      <point x="788" y="1321" type="curve" smooth="yes"/>
      <point x="788" y="1624"/>
      <point x="756" y="1760"/>
      <point x="474" y="1760" type="curve" smooth="yes"/>
      <point x="152" y="1760" type="line"/>
    </contour>
    <contour>
      <point x="320" y="979" type="line"/>
      <point x="320" y="1623" type="line"/>
      <point x="474" y="1623" type="line" smooth="yes"/>
      <point x="596" y="1623"/>
      <point x="620" y="1580"/>
      <point x="620" y="1333" type="curve" smooth="yes"/>
      <point x="620" y="1320" type="line" smooth="yes"/>
      <point x="620" y="1019"/>
      <point x="591" y="979"/>
      <point x="468" y="979" type="curve" smooth="yes"/>
    </contour>
    <contour>
      <point x="466" y="1760" type="move" name="top"/>
    </contour>
    <contour>
      <point x="466" y="0" type="move" name="bottom"/>
    </contour>
  </outline>
</glyph>
<glyph name="S" format="1">
  <advance width="843"/>
  <unicode hex="0053"/>
  <outline>
    <contour>
      <point x="441" y="-20" type="curve" smooth="yes"/>
      <point x="708" y="-20"/>
      <point x="763" y="164"/>
      <point x="763" y="440" type="curve" smooth="yes"/>
      <point x="763" y="667"/>
      <point x="667" y="827"/>
      <point x="549" y="949" type="curve" smooth="yes"/>
      <point x="445" y="1056" type="line" smooth="yes"/>
      <point x="335" y="1170"/>
      <point x="277" y="1212"/>
      <point x="277" y="1372" type="curve" smooth="yes"/>
      <point x="277" y="1556"/>
      <point x="321" y="1638"/>
      <point x="433" y="1638" type="curve" smooth="yes"/>
      <point x="555" y="1638"/>
      <point x="567" y="1510"/>
      <point x="567" y="1263" type="curve" smooth="yes"/>
      <point x="567" y="1150" type="line"/>
      <point x="735" y="1150" type="line"/>
      <point x="735" y="1251" type="line" smooth="yes"/>
      <point x="735" y="1554"/>
      <point x="720" y="1782"/>
      <point x="432" y="1782" type="curve" smooth="yes"/>
      <point x="164" y="1782"/>
      <point x="112" y="1604"/>
      <point x="112" y="1347" type="curve" smooth="yes"/>
      <point x="112" y="1146"/>
      <point x="235" y="1022"/>
      <point x="331" y="928" type="curve" smooth="yes"/>
      <point x="437" y="825" type="line" smooth="yes"/>
      <point x="536" y="728"/>
      <point x="594" y="622"/>
      <point x="594" y="449" type="curve" smooth="yes"/>
      <point x="594" y="215"/>
      <point x="585" y="124"/>
      <point x="448" y="124" type="curve" smooth="yes"/>
      <point x="316" y="124"/>
      <point x="292" y="234"/>
      <point x="292" y="518" type="curve" smooth="yes"/>
      <point x="292" y="697" type="line"/>
      <point x="124" y="697" type="line"/>
      <point x="124" y="518" type="line" smooth="yes"/>
      <point x="124" y="215"/>
      <point x="159" y="-20"/>
    </contour>
    <contour>
      <point x="427" y="1760" type="move" name="top"/>
    </contour>
    <contour>
      <point x="427" y="0" type="move" name="bottom"/>
    </contour>
  </outline>
</glyph>
<glyph name="T" format="1">
  <advance width="589"/>
  <unicode hex="0054"/>
  <outline>
    <contour>
      <point x="219" y="0" type="line"/>
      <point x="387" y="0" type="line"/>
      <point x="387" y="1625" type="line"/>
      <point x="557" y="1625" type="line"/>
      <point x="557" y="1760" type="line"/>
      <point x="32" y="1760" type="line"/>
      <point x="32" y="1625" type="line"/>
      <point x="219" y="1625" type="line"/>
    </contour>
    <contour>
      <point x="295" y="875" type="move" name="center"/>
    </contour>
    <contour>
      <point x="295" y="0" type="move" name="bottom"/>
    </contour>
    <contour>
      <point x="295" y="1760" type="move" name="top"/>
    </contour>
  </outline>
</glyph>
<glyph name="U" format="1">
  <advance width="928"/>
  <unicode hex="0055"/>
  <outline>
    <contour>
      <point x="466" y="-21" type="curve" smooth="yes"/>
      <point x="719" y="-21"/>
      <point x="786" y="132"/>
      <point x="786" y="452" type="curve" smooth="yes"/>
      <point x="786" y="1760" type="line"/>
      <point x="618" y="1760" type="line"/>
      <point x="618" y="456" type="line" smooth="yes"/>
      <point x="618" y="240"/>
      <point x="617" y="119"/>
      <point x="466" y="119" type="curve" smooth="yes"/>
      <point x="316" y="119"/>
      <point x="310" y="241"/>
      <point x="310" y="457" type="curve" smooth="yes"/>
      <point x="310" y="1760" type="line"/>
      <point x="142" y="1760" type="line"/>
      <point x="142" y="452" type="line" smooth="yes"/>
      <point x="142" y="132"/>
      <point x="213" y="-21"/>
    </contour>
    <contour>
      <point x="632" y="10" type="move" name="ogonek"/>
    </contour>
    <contour>
      <point x="464" y="1760" type="move" name="top"/>
    </contour>
  </outline>
</glyph>
<glyph name="V" format="1">
  <advance width="892"/>
  <unicode hex="0056"/>
  <outline>
    <contour>
      <point x="368" y="0" type="line"/>
      <point x="552" y="0" type="line"/>
      <point x="830" y="1760" type="line"/>
      <point x="670" y="1760" type="line"/>
      <point x="565" y="1046" type="line"/>
      <point x="461" y="332" type="line"/>
      <point x="459" y="332" type="line"/>
      <point x="342" y="1046" type="line"/>
      <point x="223" y="1760" type="line"/>
      <point x="62" y="1760" type="line"/>
    </contour>
  </outline>
</glyph>
<glyph name="W" format="1">
  <advance width="1341"/>
  <unicode hex="0057"/>
  <outline>
    <contour>
      <point x="309" y="0" type="line"/>
      <point x="467" y="0" type="line"/>
      <point x="690" y="1379" type="line"/>
      <point x="898" y="0" type="line"/>
      <point x="1064" y="0" type="line"/>
      <point x="1275" y="1760" type="line"/>
      <point x="1118" y="1760" type="line"/>
      <point x="982" y="352" type="line"/>
      <point x="752" y="1760" type="line"/>
      <point x="613" y="1760" type="line"/>
      <point x="390" y="352" type="line"/>
      <point x="227" y="1760" type="line"/>
      <point x="66" y="1760" type="line"/>
    </contour>
    <contour>
      <point x="680" y="1760" type="move" name="top"/>
    </contour>
  </outline>
</glyph>
<glyph name="Y" format="1">
  <advance width="820"/>
  <unicode hex="0059"/>
  <outline>
    <contour>
      <point x="340" y="0" type="line"/>
      <point x="508" y="0" type="line"/>
      <point x="508" y="762" type="line"/>
      <point x="794" y="1760" type="line"/>
      <point x="624" y="1760" type="line"/>
      <point x="426" y="1001" type="line"/>
      <point x="423" y="1001" type="line"/>
      <point x="193" y="1760" type="line"/>
      <point x="26" y="1760" type="line"/>
      <point x="340" y="761" type="line"/>
    </contour>
    <contour>
      <point x="417" y="1760" type="move" name="top"/>
    </contour>
  </outline>
</glyph>
<glyph name="bracketleft" format="1">
  <advance width="764"/>
  <unicode hex="005B"/>
  <outline>
    <contour>
      <point x="241" y="0" type="line"/>
      <point x="621" y="0" type="line"/>
      <point x="621" y="130" type="line"/>
      <point x="409" y="130" type="line"/>
      <point x="409" y="1631" type="line"/>
      <point x="621" y="1631" type="line"/>
      <point x="621" y="1761" type="line"/>
      <point x="241" y="1761" type="line"/>
    </contour>
  </outline>
</glyph>
<glyph name="bracketright" format="1">
  <advance width="764"/>
  <unicode hex="005D"/>
  <outline>
    <contour>
      <point x="186" y="0" type="line"/>
      <point x="566" y="0" type="line"/>
      <point x="566" y="1761" type="line"/>
      <point x="186" y="1761" type="line"/>
      <point x="186" y="1631" type="line"/>
      <point x="398" y="1631" type="line"/>
      <point x="398" y="130" type="line"/>
      <point x="186" y="130" type="line"/>
    </contour>
  </outline>
</glyph>
<glyph name="asciicircum" format="1">
  <advance width="1030"/>
  <unicode hex="005E"/>
  <outline>
    <contour>
      <point x="161" y="577" type="line"/>
      <point x="329" y="577" type="line"/>
      <point x="515" y="1372" type="line"/>
      <point x="701" y="577" type="line"/>
      <point x="867" y="577" type="line"/>
      <point x="626" y="1500" type="line"/>
      <point x="402" y="1500" type="line"/>
    </contour>
  </outline>
</glyph>
<glyph name="underscore" format="1">
  <advance width="748"/>
  <unicode hex="005F"/>
  <outline>
    <contour>
      <point x="48" y="-189" type="line"/>
      <point x="699" y="-189" type="line"/>
      <point x="699" y="-58" type="line"/>
      <point x="48" y="-58" type="line"/>
    </contour>
  </outline>
</glyph>
<glyph name="grave" format="1">
  <advance width="650"/>
  <unicode hex="0060"/>
  <outline>
    <contour>
      <point x="476" y="79" type="line"/>
      <point x="476" y="162" type="line"/>
      <point x="131" y="350" type="line"/>
      <point x="131" y="173" type="line"/>
    </contour>
    <contour>
      <point x="300" y="0" type="move" name="_top"/>
    </contour>
  </outline>
</glyph>
<glyph name="e" format="1">
  <advance width="852"/>
  <unicode hex="0065"/>
  <outline>
    <contour>
      <point x="437" y="-18" type="curve" smooth="yes"/>
      <point x="718" y="-18"/>
      <point x="726" y="198"/>
      <point x="726" y="504" type="curve" smooth="yes"/>
      <point x="726" y="558" type="line"/>
      <point x="562" y="558" type="line"/>
      <point x="562" y="443" type="line" smooth="yes"/>
      <point x="562" y="246"/>
      <point x="556" y="126"/>
      <point x="437" y="126" type="curve" smooth="yes"/>
      <point x="311" y="126"/>
      <point x="300" y="231"/>
      <point x="300" y="448" type="curve" smooth="yes"/>
      <point x="300" y="749" type="line"/>
      <point x="730" y="749" type="line"/>
      <point x="730" y="1010" type="line" smooth="yes"/>
      <point x="730" y="1300"/>
      <point x="714" y="1518"/>
      <point x="443" y="1518" type="curve" smooth="yes"/>
      <point x="173" y="1518"/>
      <point x="132" y="1303"/>
      <point x="132" y="1021" type="curve" smooth="yes"/>
      <point x="132" y="509" type="line" smooth="yes"/>
      <point x="132" y="198"/>
      <point x="158" y="-18"/>
    </contour>
    <contour>
      <point x="300" y="879" type="line"/>
      <point x="300" y="1062" type="line" smooth="yes"/>
      <point x="300" y="1249"/>
      <point x="316" y="1374"/>
      <point x="443" y="1374" type="curve" smooth="yes"/>
      <point x="562" y="1374"/>
      <point x="562" y="1266"/>
      <point x="562" y="1070" type="curve" smooth="yes"/>
      <point x="562" y="879" type="line"/>
    </contour>
    <contour>
      <point x="649" y="10" type="move" name="ogonek"/>
    </contour>
    <contour>
      <point x="425" y="0" type="move" name="bottom"/>
    </contour>
    <contour>
      <point x="439" y="1500" type="move" name="top"/>
    </contour>
  </outline>
</glyph>
<glyph name="f" format="1">
  <advance width="614"/>
  <unicode hex="0066"/>
  <outline>
    <contour>
      <point x="216" y="0" type="line"/>
      <point x="384" y="0" type="line"/>
      <point x="384" y="1316" type="line"/>
      <point x="576" y="1316" type="line"/>
      <point x="576" y="1442" type="line"/>
      <point x="384" y="1442" type="line"/>
      <point x="384" y="1530" type="line" smooth="yes"/>
      <point x="384" y="1600"/>
      <point x="394" y="1647"/>
      <point x="498" y="1647" type="curve" smooth="yes"/>
      <point x="519" y="1647"/>
      <point x="545" y="1645"/>
      <point x="576" y="1641" type="curve"/>
      <point x="576" y="1769" type="line"/>
      <point x="576" y="1769"/>
      <point x="513" y="1788"/>
      <point x="436" y="1788" type="curve" smooth="yes"/>
      <point x="275" y="1788"/>
      <point x="216" y="1688"/>
      <point x="216" y="1513" type="curve" smooth="yes"/>
      <point x="216" y="1442" type="line"/>
      <point x="80" y="1442" type="line"/>
      <point x="80" y="1316" type="line"/>
      <point x="216" y="1316" type="line"/>
    </contour>
  </outline>
</glyph>
<glyph name="g" format="1">
  <advance width="896"/>
  <unicode hex="0067"/>
  <outline>
    <contour>
      <point x="437" y="-231" type="curve" smooth="yes"/>
      <point x="695" y="-220"/>
      <point x="745" y="-18"/>
      <point x="745" y="111" type="curve" smooth="yes"/>
      <point x="745" y="1500" type="line"/>
      <point x="577" y="1500" type="line"/>
      <point x="577" y="1405" type="line"/>
      <point x="549" y="1485"/>
      <point x="485" y="1517"/>
      <point x="412" y="1518" type="curve" smooth="yes"/>
      <point x="206" y="1522"/>
      <point x="132" y="1303"/>
      <point x="132" y="1021" type="curve" smooth="yes"/>
      <point x="132" y="624" type="line" smooth="yes"/>
      <point x="132" y="343"/>
      <point x="180" y="131"/>
      <point x="389" y="131" type="curve" smooth="yes"/>
      <point x="468" y="131"/>
      <point x="536" y="154"/>
      <point x="577" y="251" type="curve"/>
      <point x="577" y="94" type="line" smooth="yes"/>
      <point x="577" y="-20"/>
      <point x="523" y="-89"/>
      <point x="436" y="-92" type="curve" smooth="yes"/>
      <point x="326" y="-96"/>
      <point x="250" y="-56"/>
      <point x="198" y="-19" type="curve"/>
      <point x="135" y="-142" type="line"/>
      <point x="205" y="-197"/>
      <point x="318" y="-236"/>
    </contour>
    <contour>
      <point x="452" y="271" type="curve" smooth="yes"/>
      <point x="330" y="271"/>
      <point x="300" y="377"/>
      <point x="300" y="608" type="curve" smooth="yes"/>
      <point x="300" y="1058" type="line" smooth="yes"/>
      <point x="300" y="1245"/>
      <point x="314" y="1374"/>
      <point x="441" y="1374" type="curve" smooth="yes"/>
      <point x="557" y="1374"/>
      <point x="577" y="1270"/>
      <point x="577" y="1056" type="curve" smooth="yes"/>
      <point x="577" y="611" type="line" smooth="yes"/>
      <point x="577" y="329"/>
      <point x="538" y="271"/>
    </contour>
    <contour>
      <point x="470" y="1500" type="move" name="top"/>
    </contour>
  </outline>
</glyph>
<glyph name="k" format="1">
  <advance width="821"/>
  <unicode hex="006B"/>
  <outline>
    <contour>
      <point x="655" y="0" type="line"/>
      <point x="829" y="0" type="line"/>
      <point x="479" y="757" type="line"/>
      <point x="811" y="1500" type="line"/>
      <point x="643" y="1500" type="line"/>
      <point x="317" y="753" type="line"/>
    </contour>
    <contour>
      <point x="156" y="0" type="line"/>
      <point x="324" y="0" type="line"/>
      <point x="324" y="1782" type="line"/>
      <point x="156" y="1782" type="line"/>
    </contour>
    <contour>
      <point x="411" y="0" type="move" name="bottom"/>
    </contour>
  </outline>
</glyph>
<glyph name="l" format="1">
  <advance width="480"/>
  <unicode hex="006C"/>
  <outline>
    <contour>
      <point x="156" y="0" type="line"/>
      <point x="324" y="0" type="line"/>
      <point x="324" y="1782" type="line"/>
      <point x="156" y="1782" type="line"/>
    </contour>
    <contour>
      <point x="240" y="0" type="move" name="bottom"/>
    </contour>
    <contour>
      <point x="240" y="1760" type="move" name="top"/>
    </contour>
    <contour>
      <point x="460" y="1500" type="move" name="topright"/>
    </contour>
    <contour>
      <point x="556" y="906" type="move" name="center"/>
    </contour>
  </outline>
</glyph>
<glyph name="m" format="1">
  <advance width="1386"/>
  <unicode hex="006D"/>
  <outline>
    <contour>
      <point x="156" y="0" type="line"/>
      <point x="324" y="0" type="line"/>
      <point x="324" y="1195" type="line" smooth="yes"/>
      <point x="324" y="1307"/>
      <point x="381" y="1368"/>
      <point x="484" y="1368" type="curve" smooth="yes"/>
      <point x="562" y="1368"/>
      <point x="614" y="1331"/>
      <point x="614" y="1214" type="curve" smooth="yes"/>
      <point x="614" y="0" type="line"/>
      <point x="782" y="0" type="line"/>
      <point x="782" y="1206" type="line" smooth="yes"/>
      <point x="782" y="1421"/>
      <point x="691" y="1519"/>
      <point x="555" y="1519" type="curve" smooth="yes"/>
      <point x="437" y="1519"/>
      <point x="350" y="1437"/>
      <point x="324" y="1349" type="curve"/>
      <point x="324" y="1500" type="line"/>
      <point x="156" y="1500" type="line"/>
    </contour>
    <contour>
      <point x="1072" y="0" type="line"/>
      <point x="1240" y="0" type="line"/>
      <point x="1240" y="1206" type="line" smooth="yes"/>
      <point x="1240" y="1421"/>
      <point x="1149" y="1519"/>
      <point x="1013" y="1519" type="curve" smooth="yes"/>
      <point x="895" y="1519"/>
      <point x="797" y="1449"/>
      <point x="752" y="1352" type="curve" smooth="yes"/>
      <point x="781" y="1205" type="line"/>
      <point x="781" y="1344"/>
      <point x="858" y="1368"/>
      <point x="941" y="1368" type="curve" smooth="yes"/>
      <point x="1019" y="1368"/>
      <point x="1072" y="1331"/>
      <point x="1072" y="1214" type="curve" smooth="yes"/>
    </contour>
    <contour>
      <point x="747" y="1500" type="move" name="top"/>
    </contour>
  </outline>
</glyph>
<glyph name="n" format="1">
  <advance width="939"/>
  <unicode hex="006E"/>
  <outline>
    <contour>
      <point x="156" y="0" type="line"/>
      <point x="324" y="0" type="line"/>
      <point x="324" y="1205" type="line" smooth="yes"/>
      <point x="324" y="1334"/>
      <point x="403" y="1374"/>
      <point x="486" y="1374" type="curve" smooth="yes"/>
      <point x="564" y="1374"/>
      <point x="625" y="1331"/>
      <point x="625" y="1214" type="curve" smooth="yes"/>
      <point x="625" y="0" type="line"/>
      <point x="793" y="0" type="line"/>
      <point x="793" y="1206" type="line" smooth="yes"/>
      <point x="793" y="1421"/>
      <point x="702" y="1519"/>
      <point x="566" y="1519" type="curve" smooth="yes"/>
      <point x="448" y="1519"/>
      <point x="350" y="1437"/>
      <point x="324" y="1349" type="curve"/>
      <point x="324" y="1500" type="line"/>
      <point x="156" y="1500" type="line"/>
    </contour>
    <contour>
      <point x="470" y="1500" type="move" name="top"/>
    </contour>
    <contour>
      <point x="470" y="0" type="move" name="bottom"/>
    </contour>
  </outline>
</glyph>
<glyph name="q" format="1">
  <advance width="894"/>
  <unicode hex="0071"/>
  <outline>
    <contour>
      <point x="577" y="-268" type="line"/>
      <point x="745" y="-268" type="line"/>
      <point x="745" y="1500" type="line"/>
      <point x="577" y="1500" type="line"/>
      <point x="577" y="1382" type="line"/>
      <point x="536" y="1479"/>
      <point x="454" y="1512"/>
      <point x="375" y="1512" type="curve" smooth="yes"/>
      <point x="166" y="1512"/>
      <point x="132" y="1300"/>
      <point x="132" y="1019" type="curve" smooth="yes"/>
      <point x="132" y="479" type="line" smooth="yes"/>
      <point x="132" y="197"/>
      <point x="182" y="-18"/>
      <point x="412" y="-18" type="curve" smooth="yes"/>
      <point x="485" y="-18"/>
      <point x="549" y="39"/>
      <point x="577" y="105" type="curve"/>
    </contour>
    <contour>
      <point x="424" y="127" type="curve" smooth="yes"/>
      <point x="310" y="127"/>
      <point x="299" y="250"/>
      <point x="299" y="437" type="curve" smooth="yes"/>
      <point x="299" y="1035" type="line" smooth="yes"/>
      <point x="299" y="1274"/>
      <point x="324" y="1371"/>
      <point x="430" y="1372" type="curve" smooth="yes"/>
      <point x="551" y="1372"/>
      <point x="576" y="1268"/>
      <point x="576" y="1041" type="curve" smooth="yes"/>
      <point x="576" y="439" type="line" smooth="yes"/>
      <point x="576" y="164"/>
      <point x="518" y="127"/>
    </contour>
  </outline>
</glyph>
<glyph name="r" format="1">
  <advance width="628.395"/>
  <unicode hex="0072"/>
  <outline>
    <contour>
      <point x="156" y="0" type="line"/>
      <point x="324" y="0" type="line"/>
      <point x="324" y="1237" type="line"/>
      <point x="398" y="1345"/>
      <point x="484" y="1375"/>
      <point x="582" y="1375" type="curve"/>
      <point x="582" y="1375"/>
      <point x="584" y="1518"/>
      <point x="579" y="1518" type="curve" smooth="yes"/>
      <point x="446" y="1518"/>
      <point x="358" y="1449"/>
      <point x="324" y="1333" type="curve"/>
      <point x="324" y="1500" type="line"/>
      <point x="156" y="1500" type="line"/>
    </contour>
    <contour>
      <point x="343" y="1500" type="move" name="top"/>
    </contour>
    <contour>
      <point x="267" y="0" type="move" name="bottom"/>
    </contour>
  </outline>
</glyph>
<glyph name="t" format="1">
  <advance width="592"/>
  <unicode hex="0074"/>
  <outline>
    <contour>
      <point x="415" y="-9" type="curve" smooth="yes"/>
      <point x="531" y="-9" type="line"/>
      <point x="531" y="130" type="line"/>
      <point x="371" y="130"/>
      <point x="359" y="141"/>
      <point x="359" y="220" type="curve" smooth="yes"/>
      <point x="359" y="1372" type="line"/>
      <point x="531" y="1372" type="line"/>
      <point x="531" y="1500" type="line"/>
      <point x="359" y="1500" type="line"/>
      <point x="359" y="1760" type="line"/>
      <point x="191" y="1760" type="line"/>
      <point x="191" y="1500" type="line"/>
      <point x="45" y="1500" type="line"/>
      <point x="45" y="1372" type="line"/>
      <point x="191" y="1372" type="line"/>
      <point x="191" y="219" type="line" smooth="yes"/>
      <point x="191" y="50"/>
      <point x="222" y="-9"/>
    </contour>
    <contour>
      <point x="530" y="1140" type="move" name="caron"/>
    </contour>
    <contour>
      <point x="395" y="0" type="move" name="bottom"/>
    </contour>
  </outline>
</glyph>
<glyph name="u" format="1">
  <advance width="939"/>
  <unicode hex="0075"/>
  <outline>
    <contour>
      <point x="388" y="-20" type="curve" smooth="yes"/>
      <point x="506" y="-20"/>
      <point x="589" y="63"/>
      <point x="615" y="151" type="curve"/>
      <point x="615" y="0" type="line"/>
      <point x="783" y="0" type="line"/>
      <point x="783" y="1500" type="line"/>
      <point x="615" y="1500" type="line"/>
      <point x="615" y="315" type="line" smooth="yes"/>
      <point x="615" y="205"/>
      <point x="558" y="132"/>
      <point x="455" y="132" type="curve" smooth="yes"/>
      <point x="365" y="132"/>
      <point x="314" y="189"/>
      <point x="314" y="306" type="curve" smooth="yes"/>
      <point x="314" y="1500" type="line"/>
      <point x="146" y="1500" type="line"/>
      <point x="146" y="294" type="line" smooth="yes"/>
      <point x="146" y="56"/>
      <point x="280" y="-20"/>
    </contour>
    <contour>
      <point x="845" y="10" type="move" name="ogonek"/>
    </contour>
    <contour>
      <point x="488" y="1500" type="move" name="top"/>
    </contour>
  </outline>
</glyph>
<glyph name="w" format="1">
  <advance width="1103"/>
  <unicode hex="0077"/>
  <outline>
    <contour>
      <point x="235" y="0" type="line"/>
      <point x="390" y="0" type="line"/>
      <point x="594" y="1500" type="line"/>
      <point x="481" y="1500" type="line"/>
      <point x="365" y="655" type="line"/>
      <point x="338" y="341" type="line"/>
      <point x="327" y="341" type="line"/>
      <point x="298" y="654" type="line"/>
      <point x="206" y="1500" type="line"/>
      <point x="55" y="1500" type="line"/>
    </contour>
    <contour>
      <point x="709" y="0" type="line"/>
      <point x="871" y="0" type="line"/>
      <point x="1047" y="1500" type="line"/>
      <point x="901" y="1500" type="line"/>
      <point x="827" y="685" type="line"/>
      <point x="806" y="341" type="line"/>
      <point x="796" y="341" type="line"/>
      <point x="756" y="684" type="line"/>
      <point x="625" y="1500" type="line"/>
      <point x="532" y="1500" type="line"/>
    </contour>
    <contour>
      <point x="560" y="1500" type="move" name="top"/>
    </contour>
  </outline>
</glyph>
<glyph name="x" format="1">
  <advance width="694"/>
  <unicode hex="0078"/>
  <outline>
    <contour>
      <point x="31" y="0" type="line"/>
      <point x="181" y="0" type="line"/>
      <point x="392" y="737" type="line"/>
      <point x="410" y="737" type="line"/>
      <point x="658" y="1500" type="line"/>
      <point x="501" y="1500" type="line"/>
      <point x="295" y="780" type="line"/>
      <point x="278" y="780" type="line"/>
    </contour>
    <contour>
      <point x="508" y="0" type="line"/>
      <point x="664" y="0" type="line"/>
      <point x="196" y="1500" type="line"/>
      <point x="49" y="1500" type="line"/>
    </contour>
  </outline>
</glyph>
<glyph name="braceleft" format="1">
  <advance width="798"/>
  <unicode hex="007B"/>
  <outline>
    <contour>
      <point x="570" y="-121" type="curve" smooth="yes"/>
      <point x="630" y="-121" type="line"/>
      <point x="630" y="26" type="line"/>
      <point x="507" y="26"/>
      <point x="491" y="49"/>
      <point x="491" y="230" type="curve" smooth="yes"/>
      <point x="491" y="476" type="line" smooth="yes"/>
      <point x="491" y="745"/>
      <point x="472" y="785"/>
      <point x="321" y="830" type="curve"/>
      <point x="472" y="875"/>
      <point x="491" y="915"/>
      <point x="491" y="1184" type="curve" smooth="yes"/>
      <point x="491" y="1430" type="line" smooth="yes"/>
      <point x="491" y="1611"/>
      <point x="507" y="1634"/>
      <point x="630" y="1634" type="curve"/>
      <point x="630" y="1781" type="line"/>
      <point x="570" y="1781" type="line" smooth="yes"/>
      <point x="380" y="1781"/>
      <point x="324" y="1704"/>
      <point x="324" y="1443" type="curve" smooth="yes"/>
      <point x="324" y="1168" type="line" smooth="yes"/>
      <point x="324" y="961"/>
      <point x="308" y="934"/>
      <point x="185" y="934" type="curve"/>
      <point x="185" y="726" type="line"/>
      <point x="308" y="726"/>
      <point x="324" y="699"/>
      <point x="324" y="492" type="curve" smooth="yes"/>
      <point x="324" y="217" type="line" smooth="yes"/>
      <point x="324" y="-44"/>
      <point x="380" y="-121"/>
    </contour>
  </outline>
</glyph>
<glyph name="braceright" format="1">
  <advance width="798"/>
  <unicode hex="007D"/>
  <outline>
    <contour>
      <point x="185" y="-121" type="line"/>
      <point x="245" y="-121" type="line" smooth="yes"/>
      <point x="435" y="-121"/>
      <point x="491" y="-44"/>
      <point x="491" y="217" type="curve"/>
      <point x="491" y="492" type="line" smooth="yes"/>
      <point x="491" y="699"/>
      <point x="507" y="726"/>
      <point x="630" y="726" type="curve"/>
      <point x="630" y="934" type="line"/>
      <point x="507" y="934"/>
      <point x="491" y="961"/>
      <point x="491" y="1168" type="curve"/>
      <point x="491" y="1443" type="line" smooth="yes"/>
      <point x="491" y="1704"/>
      <point x="435" y="1781"/>
      <point x="245" y="1781" type="curve"/>
      <point x="185" y="1781" type="line"/>
      <point x="185" y="1634" type="line"/>
      <point x="308" y="1634"/>
      <point x="324" y="1611"/>
      <point x="324" y="1430" type="curve"/>
      <point x="324" y="1184" type="line" smooth="yes"/>
      <point x="324" y="915"/>
      <point x="343" y="875"/>
      <point x="494" y="830" type="curve"/>
      <point x="343" y="785"/>
      <point x="324" y="745"/>
      <point x="324" y="476" type="curve"/>
      <point x="324" y="230" type="line" smooth="yes"/>
      <point x="324" y="49"/>
      <point x="308" y="26"/>
      <point x="185" y="26" type="curve"/>
    </contour>
  </outline>
</glyph>
<glyph name="asciitilde" format="1">
  <advance width="1117"/>
  <unicode hex="007E"/>
  <outline>
    <contour>
      <point x="253" y="837" type="line"/>
      <point x="279" y="898"/>
      <point x="312" y="930"/>
      <point x="348" y="930" type="curve" smooth="yes"/>
      <point x="454" y="930"/>
      <point x="649" y="846"/>
      <point x="763" y="846" type="curve" smooth="yes"/>
      <point x="864" y="846"/>
      <point x="940" y="935"/>
      <point x="983" y="1105" type="curve"/>
      <point x="833" y="1147" type="line"/>
      <point x="811" y="1075"/>
      <point x="777" y="1035"/>
      <point x="735" y="1030" type="curve" smooth="yes"/>
      <point x="671" y="1030"/>
      <point x="441" y="1112"/>
      <point x="337" y="1112" type="curve" smooth="yes"/>
      <point x="244" y="1112"/>
      <point x="169" y="1044"/>
      <point x="118" y="913" type="curve"/>
    </contour>
  </outline>
</glyph>
<glyph name="cent" format="1">
  <advance width="788"/>
  <unicode hex="00A2"/>
  <outline>
    <contour>
      <point x="348" y="-249" type="line"/>
      <point x="461" y="-249" type="line"/>
      <point x="461" y="6" type="line"/>
      <point x="348" y="6" type="line"/>
    </contour>
    <contour>
      <point x="461" y="1511" type="line"/>
      <point x="461" y="1768" type="line"/>
      <point x="348" y="1768" type="line"/>
      <point x="348" y="1513" type="line"/>
    </contour>
    <component base="c"/>
  </outline>
</glyph>
<glyph name="sterling" format="1">
  <advance width="1077"/>
  <unicode hex="00A3"/>
  <outline>
    <contour>
      <point x="82" y="0" type="line"/>
      <point x="914" y="0" type="line"/>
      <point x="914" y="126" type="line"/>
      <point x="316" y="126" type="line"/>
      <point x="468" y="200"/>
      <point x="516" y="391"/>
      <point x="516" y="642" type="curve" smooth="yes"/>
      <point x="516" y="699"/>
      <point x="510" y="765"/>
      <point x="502" y="825" type="curve"/>
      <point x="831" y="825" type="line"/>
      <point x="831" y="942" type="line"/>
      <point x="470" y="942" type="line"/>
      <point x="378" y="1258"/>
      <point x="334" y="1409"/>
      <point x="334" y="1414" type="curve" smooth="yes"/>
      <point x="334" y="1586"/>
      <point x="433" y="1640"/>
      <point x="581" y="1640" type="curve" smooth="yes"/>
      <point x="711" y="1640"/>
      <point x="772" y="1541"/>
      <point x="772" y="1393" type="curve" smooth="yes"/>
      <point x="772" y="1246" type="line"/>
      <point x="923" y="1246" type="line"/>
      <point x="923" y="1381" type="line" smooth="yes"/>
      <point x="923" y="1653"/>
      <point x="787" y="1781"/>
      <point x="584" y="1781" type="curve" smooth="yes"/>
      <point x="272" y="1781"/>
      <point x="174" y="1628"/>
      <point x="174" y="1399" type="curve" smooth="yes"/>
      <point x="174" y="1400"/>
      <point x="228" y="1217"/>
      <point x="308" y="942" type="curve"/>
      <point x="97" y="942" type="line"/>
      <point x="97" y="825" type="line"/>
      <point x="338" y="825" type="line"/>
      <point x="350" y="765"/>
      <point x="356" y="695"/>
      <point x="356" y="633" type="curve" smooth="yes"/>
      <point x="356" y="323"/>
      <point x="246" y="177"/>
      <point x="82" y="105" type="curve"/>
    </contour>
  </outline>
</glyph>
<glyph name="yen" format="1">
  <advance width="828"/>
  <unicode hex="00A5"/>
  <outline>
    <contour>
      <point x="756" y="438" type="line"/>
      <point x="756" y="532" type="line"/>
      <point x="479" y="532" type="line"/>
      <point x="479" y="721" type="line"/>
      <point x="756" y="721" type="line"/>
      <point x="756" y="815" type="line"/>
      <point x="80" y="815" type="line"/>
      <point x="80" y="721" type="line"/>
      <point x="400" y="721" type="line"/>
      <point x="400" y="532" type="line"/>
      <point x="80" y="532" type="line"/>
      <point x="80" y="438" type="line"/>
    </contour>
    <component base="Y"/>
  </outline>
</glyph>
<glyph name="guillemotleft" format="1">
  <advance width="1304"/>
  <unicode hex="00AB"/>
  <outline>
    <contour>
      <point x="548" y="400" type="line"/>
      <point x="548" y="578" type="line"/>
      <point x="236" y="749" type="line"/>
      <point x="548" y="911" type="line"/>
      <point x="548" y="1080" type="line"/>
      <point x="78" y="809" type="line"/>
      <point x="78" y="685" type="line"/>
    </contour>
    <contour>
      <point x="1076" y="400" type="line"/>
      <point x="1076" y="578" type="line"/>
      <point x="764" y="749" type="line"/>
      <point x="1076" y="911" type="line"/>
      <point x="1076" y="1080" type="line"/>
      <point x="606" y="809" type="line"/>
      <point x="606" y="685" type="line"/>
    </contour>
  </outline>
</glyph>
<glyph name="plusminus" format="1">
  <advance width="854"/>
  <unicode hex="00B1"/>
  <outline>
    <contour>
      <point x="363" y="541" type="line"/>
      <point x="491" y="541" type="line"/>
      <point x="491" y="802" type="line"/>
      <point x="723" y="802" type="line"/>
      <point x="723" y="919" type="line"/>
      <point x="491" y="919" type="line"/>
      <point x="491" y="1174" type="line"/>
      <point x="363" y="1174" type="line"/>
      <point x="363" y="919" type="line"/>
      <point x="135" y="919" type="line"/>
      <point x="135" y="802" type="line"/>
      <point x="363" y="802" type="line"/>
    </contour>
    <contour>
      <point x="170" y="235" type="line"/>
      <point x="686" y="235" type="line"/>
      <point x="686" y="364" type="line"/>
      <point x="170" y="364" type="line"/>
    </contour>
  </outline>
</glyph>
<glyph name="uni00B2" format="1">
  <advance width="856"/>
  <unicode hex="00B2"/>
  <outline>
    <contour>
      <point x="251.5" y="443.0" type="line"/>
      <point x="655.0" y="443.0" type="line"/>
      <point x="655.0" y="533.0" type="line"/>
      <point x="376.75" y="533.0" type="line"/>
      <point x="416.5" y="873.5"/>
      <point x="673.0" y="1060.25"/>
      <point x="673.0" y="1412.75" type="curve" smooth="yes"/>
      <point x="673.0" y="1583.75"/>
      <point x="648.25" y="1778.0"/>
      <point x="481.0" y="1778.0" type="curve" smooth="yes"/>
      <point x="258.25" y="1778.0"/>
      <point x="247.0" y="1607.75"/>
      <point x="247.0" y="1322.75" type="curve" smooth="yes"/>
      <point x="247.0" y="1241.75" type="line"/>
      <point x="373.0" y="1241.75" type="line"/>
      <point x="373.0" y="1415.75" type="line" smooth="yes"/>
      <point x="373.0" y="1637.0"/>
      <point x="416.5" y="1671.5"/>
      <point x="466.0" y="1671.5" type="curve" smooth="yes"/>
      <point x="514.0" y="1671.5"/>
      <point x="552.25" y="1635.5"/>
      <point x="552.25" y="1427.75" type="curve" smooth="yes"/>
      <point x="552.25" y="1336.25"/>
      <point x="529.75" y="1212.5"/>
      <point x="499.0" y="1149.5" type="curve" smooth="yes"/>
      <point x="499.0" y="1149.5"/>
      <point x="251.5" y="608.0"/>
      <point x="251.5" y="513.5" type="curve" smooth="yes"/>
    </contour>
  </outline>
</glyph>
<glyph name="uni00B3" format="1">
  <advance width="876"/>
  <unicode hex="00B3"/>
  <outline>
    <contour>
      <point x="435.8" y="551.4" type="curve" smooth="yes"/>
      <point x="593.56" y="551.4"/>
      <point x="661.56" y="660.88"/>
      <point x="661.56" y="887.32" type="curve" smooth="yes"/>
      <point x="661.56" y="1021.28"/>
      <point x="626.2" y="1150.48"/>
      <point x="539.84" y="1189.24" type="curve"/>
      <point x="626.2" y="1221.88"/>
      <point x="659.52" y="1326.6"/>
      <point x="659.52" y="1462.6" type="curve" smooth="yes"/>
      <point x="659.52" y="1668.64"/>
      <point x="594.92" y="1775.4"/>
      <point x="437.16" y="1775.4" type="curve" smooth="yes"/>
      <point x="279.4" y="1775.4"/>
      <point x="225.0" y="1668.64"/>
      <point x="225.0" y="1462.6" type="curve" smooth="yes"/>
      <point x="225.0" y="1437.44" type="line"/>
      <point x="339.24" y="1437.44" type="line"/>
      <point x="339.24" y="1460.56" type="line" smooth="yes"/>
      <point x="339.24" y="1638.72"/>
      <point x="375.96" y="1678.84"/>
      <point x="435.8" y="1678.84" type="curve" smooth="yes"/>
      <point x="497.0" y="1678.84"/>
      <point x="545.28" y="1648.24"/>
      <point x="545.28" y="1463.28" type="curve" smooth="yes"/>
      <point x="545.28" y="1265.4"/>
      <point x="503.8" y="1238.2"/>
      <point x="405.88" y="1238.2" type="curve" smooth="yes"/>
      <point x="376.64" y="1238.2" type="line"/>
      <point x="376.64" y="1143.0" type="line"/>
      <point x="407.24" y="1143.0" type="line" smooth="yes"/>
      <point x="507.2" y="1143.0"/>
      <point x="547.32" y="1085.2"/>
      <point x="547.32" y="889.36" type="curve" smooth="yes"/>
      <point x="547.32" y="711.2"/>
      <point x="524.2" y="647.28"/>
      <point x="437.16" y="647.28" type="curve" smooth="yes"/>
      <point x="348.76" y="647.28"/>
      <point x="335.16" y="701.68"/>
      <point x="335.16" y="886.64" type="curve" smooth="yes"/>
      <point x="335.16" y="924.72" type="line"/>
      <point x="220.92" y="924.72" type="line"/>
      <point x="220.92" y="887.32" type="line" smooth="yes"/>
      <point x="220.92" y="660.88"/>
      <point x="278.04" y="551.4"/>
    </contour>
  </outline>
</glyph>
<glyph name="acute" format="1">
  <advance width="650"/>
  <unicode hex="00B4"/>
  <outline>
    <contour>
      <point x="100" y="1895" type="line"/>
      <point x="505" y="1979" type="line"/>
      <point x="505" y="2141" type="line"/>
      <point x="100" y="1978" type="line"/>
    </contour>
    <contour>
      <point x="279" y="1760" type="move" name="_top"/>
    </contour>
  </outline>
</glyph>
<glyph name="paragraph" format="1">
  <advance width="1119"/>
  <unicode hex="00B6"/>
  <outline>
    <contour>
      <point x="468" y="0" type="line"/>
      <point x="636" y="0" type="line"/>
      <point x="636" y="1605" type="line"/>
      <point x="779" y="1605" type="line"/>
      <point x="779" y="0" type="line"/>
      <point x="947" y="0" type="line"/>
      <point x="947" y="1761" type="line"/>
      <point x="662" y="1761" type="line" smooth="yes"/>
      <point x="268" y="1761"/>
      <point x="151" y="1694"/>
      <point x="151" y="1468" type="curve" smooth="yes"/>
      <point x="151" y="1292"/>
      <point x="260" y="1188"/>
      <point x="468" y="1165" type="curve"/>
    </contour>
  </outline>
</glyph>
<glyph name="cedilla" format="1">
  <advance width="1015"/>
  <unicode hex="00B8"/>
  <outline>
    <contour>
      <point x="469" y="-603" type="curve" smooth="yes"/>
      <point x="630" y="-603"/>
      <point x="741" y="-497"/>
      <point x="741" y="-379" type="curve" smooth="yes"/>
      <point x="741" y="-296"/>
      <point x="686" y="-208"/>
      <point x="554" y="-146" type="curve"/>
      <point x="544" y="0" type="line"/>
      <point x="483" y="0" type="line"/>
      <point x="443" y="-196" type="line"/>
      <point x="525" y="-214"/>
      <point x="603" y="-269"/>
      <point x="603" y="-359" type="curve" smooth="yes"/>
      <point x="603" y="-434"/>
      <point x="561" y="-501"/>
      <point x="372" y="-501" type="curve"/>
      <point x="372" y="-591" type="line"/>
      <point x="406" y="-599"/>
      <point x="438" y="-603"/>
    </contour>
    <contour>
      <point x="515" y="0" type="move" name="_bottom"/>
    </contour>
  </outline>
</glyph>
<glyph name="ordmasculine" format="1">
  <advance width="908"/>
  <unicode hex="00BA"/>
  <outline>
    <contour>
      <point x="361" y="754" type="curve" smooth="yes"/>
      <point x="361" y="1238" type="line" smooth="yes"/>
      <point x="361" y="1388"/>
      <point x="373" y="1491"/>
      <point x="475" y="1491" type="curve" smooth="yes"/>
      <point x="570" y="1491"/>
      <point x="584" y="1388"/>
      <point x="584" y="1238" type="curve" smooth="yes"/>
      <point x="584" y="754" type="line" smooth="yes"/>
      <point x="584" y="596"/>
      <point x="570" y="490"/>
      <point x="475" y="490" type="curve" smooth="yes"/>
      <point x="373" y="490"/>
      <point x="361" y="596"/>
    </contour>
    <contour>
      <point x="475" y="375" type="curve" smooth="yes"/>
      <point x="700" y="375"/>
      <point x="719" y="552"/>
      <point x="719" y="797" type="curve" smooth="yes"/>
      <point x="719" y="1208" type="line" smooth="yes"/>
      <point x="719" y="1435"/>
      <point x="692" y="1607"/>
      <point x="475" y="1607" type="curve" smooth="yes"/>
      <point x="258" y="1607"/>
      <point x="226" y="1434"/>
      <point x="226" y="1208" type="curve" smooth="yes"/>
      <point x="226" y="797" type="line" smooth="yes"/>
      <point x="226" y="548"/>
      <point x="251" y="375"/>
    </contour>
  </outline>
</glyph>
<glyph name="guillemotright" format="1">
  <advance width="1304"/>
  <unicode hex="00BB"/>
  <outline>
    <contour>
      <point x="186" y="400" type="line"/>
      <point x="656" y="685" type="line"/>
      <point x="656" y="809" type="line"/>
      <point x="186" y="1080" type="line"/>
      <point x="186" y="911" type="line"/>
      <point x="498" y="749" type="line"/>
      <point x="186" y="578" type="line"/>
    </contour>
    <contour>
      <point x="714" y="400" type="line"/>
      <point x="1184" y="685" type="line"/>
      <point x="1184" y="809" type="line"/>
      <point x="714" y="1080" type="line"/>
      <point x="714" y="911" type="line"/>
      <point x="1026" y="749" type="line"/>
      <point x="714" y="578" type="line"/>
    </contour>
  </outline>
</glyph>
<glyph name="onequarter" format="1">
  <advance width="1535"/>
  <unicode hex="00BC"/>
  <outline>
    <contour>
      <point x="478" y="0" type="line"/>
      <point x="608" y="0" type="line"/>
      <point x="1075" y="1768" type="line"/>
      <point x="944" y="1768" type="line"/>
    </contour>
    <component base="one" xScale="0.75" yScale="0.75" xOffset="60" yOffset="438"/>
    <component base="four" xScale="0.68" yScale="0.68" xOffset="846" yOffset="1"/>
  </outline>
</glyph>
<glyph name="onehalf" format="1">
  <advance width="1620"/>
  <unicode hex="00BD"/>
  <outline>
    <contour>
      <point x="478" y="0" type="line"/>
      <point x="608" y="0" type="line"/>
      <point x="1075" y="1768" type="line"/>
      <point x="944" y="1768" type="line"/>
    </contour>
    <component base="one" xScale="0.75" yScale="0.75" xOffset="60" yOffset="438"/>
    <component base="two" xScale="0.75" yScale="0.75" xOffset="983" yOffset="1"/>
  </outline>
</glyph>
<glyph name="threequarters" format="1">
  <advance width="1555"/>
  <unicode hex="00BE"/>
  <outline>
    <contour>
      <point x="541" y="0" type="line"/>
      <point x="671" y="0" type="line"/>
      <point x="1138" y="1768" type="line"/>
      <point x="1007" y="1768" type="line"/>
    </contour>
    <component base="four" xScale="0.68" yScale="0.68" xOffset="866" yOffset="1"/>
    <component base="three" xScale="0.68" yScale="0.68" xOffset="60" yOffset="565"/>
  </outline>
</glyph>
<glyph name="ae" format="1">
  <advance width="1302"/>
  <unicode hex="00E6"/>
  <outline>
    <contour>
      <point x="383" y="-12" type="curve" smooth="yes"/>
      <point x="481" y="-12"/>
      <point x="594" y="57"/>
      <point x="641" y="107" type="curve"/>
      <point x="684" y="27"/>
      <point x="759" y="-18"/>
      <point x="887" y="-18" type="curve" smooth="yes"/>
      <point x="1168" y="-18"/>
      <point x="1176" y="198"/>
      <point x="1176" y="504" type="curve" smooth="yes"/>
      <point x="1176" y="558" type="line"/>
      <point x="1012" y="558" type="line"/>
      <point x="1012" y="443" type="line" smooth="yes"/>
      <point x="1012" y="246"/>
      <point x="1006" y="126"/>
      <point x="887" y="126" type="curve" smooth="yes"/>
      <point x="761" y="126"/>
      <point x="750" y="231"/>
      <point x="750" y="448" type="curve" smooth="yes"/>
      <point x="750" y="749" type="line"/>
      <point x="1180" y="749" type="line"/>
      <point x="1180" y="1010" type="line" smooth="yes"/>
      <point x="1180" y="1300"/>
      <point x="1164" y="1518"/>
      <point x="893" y="1518" type="curve" smooth="yes"/>
      <point x="785" y="1518"/>
      <point x="714" y="1484"/>
      <point x="667" y="1424" type="curve"/>
      <point x="635" y="1486"/>
      <point x="574" y="1518"/>
      <point x="458" y="1518" type="curve" smooth="yes"/>
      <point x="177" y="1518"/>
      <point x="156" y="1302"/>
      <point x="156" y="1056" type="curve" smooth="yes"/>
      <point x="156" y="1015" type="line"/>
      <point x="324" y="1015" type="line"/>
      <point x="324" y="1057" type="line" smooth="yes"/>
      <point x="324" y="1284"/>
      <point x="338" y="1374"/>
      <point x="457" y="1374" type="curve" smooth="yes"/>
      <point x="578" y="1374"/>
      <point x="582" y="1281"/>
      <point x="582" y="1064" type="curve" smooth="yes"/>
      <point x="582" y="958" type="line"/>
      <point x="331" y="851"/>
      <point x="138" y="786"/>
      <point x="138" y="556" type="curve" smooth="yes"/>
      <point x="138" y="380" type="line" smooth="yes"/>
      <point x="138" y="130"/>
      <point x="216" y="-12"/>
    </contour>
    <contour>
      <point x="420" y="126" type="curve" smooth="yes"/>
      <point x="328" y="126"/>
      <point x="306" y="200"/>
      <point x="306" y="390" type="curve" smooth="yes"/>
      <point x="306" y="516" type="line" smooth="yes"/>
      <point x="306" y="701"/>
      <point x="347" y="728"/>
      <point x="582" y="834" type="curve"/>
      <point x="582" y="226" type="line"/>
      <point x="561" y="184"/>
      <point x="496" y="126"/>
    </contour>
    <contour>
      <point x="750" y="879" type="line"/>
      <point x="750" y="1062" type="line" smooth="yes"/>
      <point x="750" y="1249"/>
      <point x="766" y="1374"/>
      <point x="893" y="1374" type="curve" smooth="yes"/>
      <point x="1012" y="1374"/>
      <point x="1012" y="1266"/>
      <point x="1012" y="1070" type="curve" smooth="yes"/>
      <point x="1012" y="879" type="line"/>
    </contour>
    <contour>
      <point x="779" y="460" type="move" name="top"/>
    </contour>
  </outline>
</glyph>
<glyph name="eth" format="1">
  <advance width="940"/>
  <unicode hex="00F0"/>
  <outline>
    <contour>
      <point x="442" y="-20" type="curve" smooth="yes"/>
      <point x="724" y="-20"/>
      <point x="784" y="206"/>
      <point x="784" y="509" type="curve" smooth="yes"/>
      <point x="784.0" y="941.678408802" type="line"/>
      <point x="784.0" y="941.678408802"/>
      <point x="768.0" y="1444.0"/>
      <point x="740" y="1513" type="curve"/>
      <point x="936" y="1629" type="line"/>
      <point x="881" y="1735" type="line"/>
      <point x="681" y="1617" type="line"/>
      <point x="594" y="1729"/>
      <point x="461" y="1780"/>
      <point x="313" y="1780" type="curve"/>
      <point x="291" y="1638" type="line"/>
      <point x="365" y="1638"/>
      <point x="463" y="1611"/>
      <point x="532" y="1529" type="curve"/>
      <point x="313" y="1399" type="line"/>
      <point x="368" y="1293" type="line"/>
      <point x="590" y="1425" type="line"/>
      <point x="606.0" y="1378.0"/>
      <point x="616" y="1014"/>
      <point x="616" y="1014" type="curve"/>
      <point x="574" y="1071"/>
      <point x="498" y="1100"/>
      <point x="436" y="1102" type="curve" smooth="yes"/>
      <point x="184" y="1112"/>
      <point x="110" y="955"/>
      <point x="110" y="562" type="curve" smooth="yes"/>
      <point x="110" y="449" type="line" smooth="yes"/>
      <point x="110" y="146"/>
      <point x="180" y="-20"/>
    </contour>
    <contour>
      <point x="442" y="124" type="curve" smooth="yes"/>
      <point x="314" y="124"/>
      <point x="278" y="185"/>
      <point x="278" y="444" type="curve" smooth="yes"/>
      <point x="278" y="556" type="line" smooth="yes"/>
      <point x="278" y="858"/>
      <point x="307" y="961"/>
      <point x="436" y="961" type="curve" smooth="yes"/>
      <point x="527" y="961"/>
      <point x="599" y="914"/>
      <point x="616" y="902" type="curve"/>
      <point x="616" y="497" type="line" smooth="yes"/>
      <point x="616" y="236"/>
      <point x="584" y="124"/>
    </contour>
  </outline>
</glyph>
<glyph name="Hbar" format="1">
  <advance width="949"/>
  <unicode hex="0126"/>
  <outline>
    <contour>
      <point x="55" y="1410" type="line"/>
      <point x="917" y="1410" type="line"/>
      <point x="917" y="1500" type="line"/>
      <point x="55" y="1500" type="line"/>
    </contour>
    <component base="H"/>
  </outline>
</glyph>
<glyph name="hbar" format="1">
  <advance width="939"/>
  <unicode hex="0127"/>
  <outline>
    <contour>
      <point x="497" y="1566" type="line"/>
      <point x="497" y="1685" type="line"/>
      <point x="0" y="1685" type="line"/>
      <point x="0" y="1566" type="line"/>
    </contour>
    <component base="h"/>
    <contour>
      <point x="250" y="1634" type="move" name="center"/>
    </contour>
  </outline>
</glyph>
<glyph name="kgreenlandic" format="1">
  <advance width="821"/>
  <unicode hex="0138"/>
  <outline>
    <contour>
      <point x="655" y="0" type="line"/>
      <point x="829" y="0" type="line"/>
      <point x="479" y="757" type="line"/>
      <point x="811" y="1500" type="line"/>
      <point x="643" y="1500" type="line"/>
      <point x="317" y="753" type="line"/>
    </contour>
    <contour>
      <point x="156" y="0" type="line"/>
      <point x="324" y="0" type="line"/>
      <point x="324" y="1500" type="line"/>
      <point x="156" y="1500" type="line"/>
    </contour>
  </outline>
</glyph>
<glyph name="Lcaron" format="1">
  <advance width="719"/>
  <unicode hex="013D"/>
  <outline>
    <contour>
      <point x="659" y="1278" type="line"/>
      <point x="730" y="1278" type="line"/>
      <point x="811" y="1565" type="line"/>
      <point x="811" y="1760" type="line"/>
      <point x="601" y="1760" type="line"/>
      <point x="601" y="1556" type="line"/>
      <point x="704" y="1556" type="line"/>
    </contour>
    <component base="L"/>
  </outline>
</glyph>
<glyph name="Lslash" format="1">
  <advance width="719"/>
  <unicode hex="0141"/>
  <outline>
    <contour>
      <point x="-1" y="784" type="line"/>
      <point x="516" y="1003" type="line"/>
      <point x="516" y="1135" type="line"/>
      <point x="-1" y="916" type="line"/>
    </contour>
    <component base="L"/>
  </outline>
</glyph>
<glyph name="lslash" format="1">
  <advance width="718"/>
  <unicode hex="0142"/>
  <outline>
    <contour>
      <point x="607" y="1002" type="line"/>
      <point x="607" y="1153" type="line"/>
      <point x="91" y="921" type="line"/>
      <point x="91" y="770" type="line"/>
    </contour>
    <component base="l" xOffset="85"/>
  </outline>
</glyph>
<glyph name="OE" format="1">
  <advance width="1200"/>
  <unicode hex="0152"/>
  <outline>
    <contour>
      <point x="452" y="0" type="curve" smooth="yes"/>
      <point x="1089" y="0" type="line"/>
      <point x="1089" y="136" type="line"/>
      <point x="772" y="136" type="line"/>
      <point x="772" y="828" type="line"/>
      <point x="1071" y="828" type="line"/>
      <point x="1071" y="966" type="line"/>
      <point x="772" y="966" type="line"/>
      <point x="772" y="1625" type="line"/>
      <point x="1089" y="1625" type="line"/>
      <point x="1089" y="1760" type="line"/>
      <point x="458" y="1760" type="line" smooth="yes"/>
      <point x="176" y="1760"/>
      <point x="128" y="1576"/>
      <point x="128" y="1273" type="curve" smooth="yes"/>
      <point x="128" y="515" type="line" smooth="yes"/>
      <point x="128" y="152"/>
      <point x="194" y="0"/>
    </contour>
    <contour>
      <point x="452" y="143" type="line" smooth="yes"/>
      <point x="323" y="144"/>
      <point x="296" y="212"/>
      <point x="296" y="514" type="curve" smooth="yes"/>
      <point x="296" y="1286" type="line" smooth="yes"/>
      <point x="296" y="1531"/>
      <point x="330" y="1616"/>
      <point x="458" y="1616" type="curve" smooth="yes"/>
      <point x="604" y="1616" type="line"/>
      <point x="604" y="143" type="line"/>
    </contour>
    <contour>
      <point x="656" y="0" type="move" name="top"/>
    </contour>
  </outline>
</glyph>
<glyph name="uni0237" format="1">
  <advance width="522"/>
  <unicode hex="0237"/>
  <outline>
    <contour>
      <point x="228" y="-155" type="curve" smooth="yes"/>
      <point x="276" y="-150"/>
      <point x="366" y="-115"/>
      <point x="366" y="46" type="curve" smooth="yes"/>
      <point x="366" y="1500" type="line"/>
      <point x="198" y="1500" type="line"/>
      <point x="198" y="36" type="line" smooth="yes"/>
      <point x="198" y="-1"/>
      <point x="189" y="-26"/>
      <point x="157" y="-31" type="curve" smooth="yes"/>
      <point x="129" y="-34"/>
      <point x="90" y="-30"/>
      <point x="90" y="-30" type="curve"/>
      <point x="90" y="-150" type="line"/>
      <point x="90" y="-150"/>
      <point x="157" y="-163"/>
    </contour>
    <contour>
      <point x="293" y="1500" type="move" name="top"/>
    </contour>
  </outline>
</glyph>
<glyph name="caron" format="1">
  <advance width="970"/>
  <unicode hex="02C7"/>
  <outline>
    <contour>
      <point x="391" y="1582" type="line"/>
      <point x="579" y="1582" type="line"/>
      <point x="710" y="1849" type="line"/>
      <point x="571" y="1849" type="line"/>
      <point x="485" y="1664" type="line"/>
      <point x="399" y="1849" type="line"/>
      <point x="259" y="1849" type="line"/>
    </contour>
    <contour>
      <point x="485" y="1500" type="move" name="_top"/>
    </contour>
  </outline>
</glyph>
<glyph name="breve" format="1">
  <advance width="1016"/>
  <unicode hex="02D8"/>
  <outline>
    <contour>
      <point x="505" y="1618" type="curve" smooth="yes"/>
      <point x="645" y="1618"/>
      <point x="711" y="1698"/>
      <point x="711" y="1821" type="curve" smooth="yes"/>
      <point x="711" y="1834" type="line"/>
      <point x="633" y="1834" type="line"/>
      <point x="633" y="1736"/>
      <point x="567" y="1718"/>
      <point x="507" y="1718" type="curve" smooth="yes"/>
      <point x="444" y="1718"/>
      <point x="378" y="1740"/>
      <point x="378" y="1834" type="curve"/>
      <point x="300" y="1834" type="line"/>
      <point x="300" y="1819" type="line" smooth="yes"/>
      <point x="300" y="1694"/>
      <point x="371" y="1618"/>
    </contour>
    <contour>
      <point x="508" y="1500" type="move" name="_top"/>
    </contour>
  </outline>
</glyph>
<glyph name="dotaccent" format="1">
  <advance width="572"/>
  <unicode hex="02D9"/>
  <outline>
    <contour>
      <point x="203" y="98" type="line"/>
      <point x="380" y="98" type="line"/>
      <point x="380" y="246" type="line"/>
      <point x="203" y="246" type="line"/>
    </contour>
    <contour>
      <point x="286" y="0" type="move" name="_top"/>
    </contour>
  </outline>
</glyph>
<glyph name="ogonek" format="1">
  <advance width="1015"/>
  <unicode hex="02DB"/>
  <outline>
    <contour>
      <point x="643" y="-626" type="curve" smooth="yes"/>
      <point x="711" y="-626"/>
      <point x="789" y="-604"/>
      <point x="812" y="-591" type="curve"/>
      <point x="812" y="-491" type="line"/>
      <point x="811" y="-492"/>
      <point x="746" y="-514"/>
      <point x="666" y="-514" type="curve" smooth="yes"/>
      <point x="563" y="-514"/>
      <point x="518" y="-460"/>
      <point x="518" y="-382" type="curve" smooth="yes"/>
      <point x="518" y="-276"/>
      <point x="601" y="-124"/>
      <point x="731" y="0" type="curve"/>
      <point x="660" y="0" type="line"/>
      <point x="483" y="-100"/>
      <point x="382" y="-268"/>
      <point x="382" y="-405" type="curve" smooth="yes"/>
      <point x="382" y="-528"/>
      <point x="463" y="-626"/>
    </contour>
    <contour>
      <point x="835" y="1" type="move" name="_ogonek"/>
    </contour>
  </outline>
</glyph>
<glyph name="tilde" format="1">
  <advance width="1117"/>
  <unicode hex="02DC"/>
  <outline>
    <contour>
      <point x="701" y="119" type="curve" smooth="yes"/>
      <point x="769" y="119"/>
      <point x="808" y="139"/>
      <point x="847" y="269" type="curve" smooth="yes"/>
      <point x="856" y="299" type="line"/>
      <point x="745" y="327" type="line"/>
      <point x="724" y="267"/>
      <point x="708" y="259"/>
      <point x="689" y="256" type="curve"/>
      <point x="685" y="256" type="line" smooth="yes"/>
      <point x="635" y="256"/>
      <point x="512" y="330"/>
      <point x="431" y="330" type="curve" smooth="yes"/>
      <point x="363" y="330"/>
      <point x="298" y="322"/>
      <point x="259" y="187" type="curve"/>
      <point x="358" y="140" type="line"/>
      <point x="376" y="175"/>
      <point x="387" y="194"/>
      <point x="409" y="199" type="curve"/>
      <point x="416" y="201"/>
      <point x="424" y="201"/>
      <point x="432" y="201" type="curve" smooth="yes"/>
      <point x="515" y="201"/>
      <point x="613" y="119"/>
    </contour>
    <contour>
      <point x="558" y="0" type="move" name="_top"/>
    </contour>
  </outline>
</glyph>
<glyph name="hungarumlaut" format="1">
  <advance width="1300"/>
  <unicode hex="02DD"/>
  <outline>
    <contour>
      <point x="509" y="163" type="line"/>
      <point x="718" y="513" type="line"/>
      <point x="547" y="594" type="line"/>
      <point x="433" y="195" type="line"/>
    </contour>
    <contour>
      <point x="773" y="153" type="line"/>
      <point x="1043" y="503" type="line"/>
      <point x="869" y="594" type="line"/>
      <point x="698" y="195" type="line"/>
    </contour>
    <contour>
      <point x="661" y="0" type="move" name="_top"/>
    </contour>
  </outline>
</glyph>
<glyph name="dblgravecmb" format="1">
  <advance width="825"/>
  <unicode hex="030F"/>
  <outline>
    <contour>
      <point x="267" y="1638" type="line"/>
      <point x="343" y="1686" type="line"/>
      <point x="152" y="2025" type="line"/>
      <point x="8" y="1927" type="line"/>
    </contour>
    <contour>
      <point x="539" y="1638" type="line"/>
      <point x="615" y="1686" type="line"/>
      <point x="461" y="2025" type="line"/>
      <point x="321" y="1927" type="line"/>
    </contour>
    <contour>
      <point x="412" y="1500" type="move" name="_top"/>
    </contour>
  </outline>
</glyph>
<glyph name="uni0311" format="1">
  <advance width="1016"/>
  <unicode hex="0311"/>
  <outline>
    <contour>
      <point x="299" y="1604" type="line"/>
      <point x="377" y="1606" type="line"/>
      <point x="375" y="1704"/>
      <point x="441" y="1724"/>
      <point x="500" y="1725" type="curve" smooth="yes"/>
      <point x="563" y="1727"/>
      <point x="630" y="1707"/>
      <point x="632" y="1613" type="curve"/>
      <point x="710" y="1615" type="line"/>
      <point x="710" y="1630" type="line"/>
      <point x="707" y="1755"/>
      <point x="634" y="1829"/>
      <point x="500" y="1825" type="curve" smooth="yes"/>
      <point x="360" y="1822"/>
      <point x="296" y="1740"/>
      <point x="299" y="1617" type="curve" smooth="yes"/>
    </contour>
    <contour>
      <point x="508" y="1500" type="move" name="_top"/>
    </contour>
  </outline>
</glyph>
<glyph name="quoteright" format="1">
  <advance width="595"/>
  <unicode hex="2019"/>
  <outline>
    <contour>
      <point x="232" y="1148" type="line"/>
      <point x="345" y="1148" type="line"/>
      <point x="463" y="1576" type="line"/>
      <point x="463" y="1782" type="line"/>
      <point x="179" y="1782" type="line"/>
      <point x="179" y="1567" type="line"/>
      <point x="323" y="1567" type="line"/>
    </contour>
    <contour>
      <point x="83" y="1162" type="move" name="_caron"/>
    </contour>
  </outline>
</glyph>
<glyph name="quotedblleft" format="1">
  <advance width="1030"/>
  <unicode hex="201C"/>
  <outline>
    <contour>
      <point x="170" y="1148" type="line"/>
      <point x="454" y="1148" type="line"/>
      <point x="454" y="1363" type="line"/>
      <point x="310" y="1363" type="line"/>
      <point x="401" y="1782" type="line"/>
      <point x="288" y="1782" type="line"/>
      <point x="170" y="1354" type="line"/>
    </contour>
    <contour>
      <point x="620" y="1148" type="line"/>
      <point x="904" y="1148" type="line"/>
      <point x="904" y="1363" type="line"/>
      <point x="760" y="1363" type="line"/>
      <point x="851" y="1782" type="line"/>
      <point x="738" y="1782" type="line"/>
      <point x="620" y="1354" type="line"/>
    </contour>
  </outline>
</glyph>
<glyph name="quotedblright" format="1">
  <advance width="1077"/>
  <unicode hex="201D"/>
  <outline>
    <contour>
      <point x="238" y="1148" type="line"/>
      <point x="351" y="1148" type="line"/>
      <point x="469" y="1576" type="line"/>
      <point x="469" y="1782" type="line"/>
      <point x="185" y="1782" type="line"/>
      <point x="185" y="1567" type="line"/>
      <point x="329" y="1567" type="line"/>
    </contour>
    <contour>
      <point x="688" y="1148" type="line"/>
      <point x="801" y="1148" type="line"/>
      <point x="919" y="1576" type="line"/>
      <point x="919" y="1782" type="line"/>
      <point x="635" y="1782" type="line"/>
      <point x="635" y="1567" type="line"/>
      <point x="779" y="1567" type="line"/>
    </contour>
  </outline>
</glyph>
<glyph name="dagger" format="1">
  <advance width="909"/>
  <unicode hex="2020"/>
  <outline>
    <contour>
      <point x="372" y="0" type="line"/>
      <point x="540" y="0" type="line"/>
      <point x="540" y="1050" type="line"/>
      <point x="818" y="1050" type="line"/>
      <point x="818" y="1182" type="line"/>
      <point x="540" y="1182" type="line"/>
      <point x="540" y="1592" type="line"/>
      <point x="372" y="1592" type="line"/>
      <point x="372" y="1182" type="line"/>
      <point x="91" y="1182" type="line"/>
      <point x="91" y="1050" type="line"/>
      <point x="372" y="1050" type="line"/>
    </contour>
  </outline>
</glyph>
<glyph name="bullet" format="1">
  <advance width="861"/>
  <unicode hex="2022"/>
  <outline>
    <contour>
      <point x="430" y="503" type="curve" smooth="yes"/>
      <point x="571" y="503"/>
      <point x="644" y="585"/>
      <point x="644" y="741" type="curve" smooth="yes"/>
      <point x="644" y="897"/>
      <point x="571" y="979"/>
      <point x="430" y="979" type="curve" smooth="yes"/>
      <point x="290" y="979"/>
      <point x="217" y="897"/>
      <point x="217" y="741" type="curve" smooth="yes"/>
      <point x="217" y="585"/>
      <point x="290" y="503"/>
    </contour>
  </outline>
</glyph>
<glyph name="uni2074" format="1">
  <advance width="856"/>
  <unicode hex="2074"/>
  <outline>
    <contour>
      <point x="486.72" y="562.32" type="line"/>
      <point x="592.8" y="562.32" type="line"/>
      <point x="592.8" y="797.6" type="line"/>
      <point x="695.48" y="797.6" type="line"/>
      <point x="695.48" y="887.36" type="line"/>
      <point x="592.8" y="887.36" type="line"/>
      <point x="592.8" y="1760.48" type="line"/>
      <point x="479.24" y="1760.48" type="line"/>
      <point x="212.0" y="874.44" type="line"/>
      <point x="212.0" y="797.6" type="line"/>
      <point x="486.72" y="797.6" type="line"/>
    </contour>
    <contour>
      <point x="311.96" y="887.36" type="line"/>
      <point x="486.72" y="1530.64" type="line"/>
      <point x="486.72" y="887.36" type="line"/>
    </contour>
  </outline>
</glyph>
<glyph name="trademark" format="1">
  <advance width="1450"/>
  <unicode hex="2122"/>
  <outline>
    <contour>
      <point x="641" y="457" type="line"/>
      <point x="752" y="457" type="line"/>
      <point x="752" y="1004" type="line"/>
      <point x="736" y="1516" type="line"/>
      <point x="921" y="457" type="line"/>
      <point x="1047" y="457" type="line"/>
      <point x="1225" y="1516" type="line"/>
      <point x="1210" y="1004" type="line"/>
      <point x="1210" y="457" type="line"/>
      <point x="1320" y="457" type="line"/>
      <point x="1320" y="1761" type="line"/>
      <point x="1164" y="1761" type="line"/>
      <point x="984" y="614" type="line"/>
      <point x="798" y="1761" type="line"/>
      <point x="641" y="1761" type="line"/>
    </contour>
    <contour>
      <point x="255" y="457" type="line"/>
      <point x="379" y="457" type="line"/>
      <point x="379" y="1661" type="line"/>
      <point x="505" y="1661" type="line"/>
      <point x="505" y="1761" type="line"/>
      <point x="116" y="1761" type="line"/>
      <point x="116" y="1661" type="line"/>
      <point x="255" y="1661" type="line"/>
    </contour>
  </outline>
</glyph>
<glyph name="product" format="1">
  <advance width="949"/>
  <unicode hex="220F"/>
  <outline>
    <contour>
      <point x="152" y="0" type="line"/>
      <point x="320" y="0" type="line"/>
      <point x="320" y="1632" type="line"/>
      <point x="629" y="1632" type="line"/>
      <point x="629" y="0" type="line"/>
      <point x="797" y="0" type="line"/>
      <point x="797" y="1760" type="line"/>
      <point x="152" y="1760" type="line"/>
    </contour>
  </outline>
</glyph>
<glyph name="uni2215" format="1">
  <advance width="829"/>
  <unicode hex="2215"/>
  <outline>
    <contour>
      <point x="88" y="0" type="line"/>
      <point x="238" y="0" type="line"/>
      <point x="685" y="1768" type="line"/>
      <point x="534" y="1768" type="line"/>
    </contour>
  </outline>
</glyph>
<glyph name="integral" format="1">
  <advance width="767"/>
  <unicode hex="222B"/>
  <outline>
    <contour>
      <point x="258" y="-13" type="curve" smooth="yes"/>
      <point x="398" y="-13"/>
      <point x="462" y="67"/>
      <point x="462" y="221" type="curve" smooth="yes"/>
      <point x="462" y="1515" type="line" smooth="yes"/>
      <point x="462" y="1604"/>
      <point x="483" y="1643"/>
      <point x="544" y="1643" type="curve" smooth="yes"/>
      <point x="571" y="1643"/>
      <point x="607" y="1635"/>
      <point x="652" y="1621" type="curve"/>
      <point x="652" y="1752" type="line"/>
      <point x="591" y="1775"/>
      <point x="537" y="1786"/>
      <point x="492" y="1786" type="curve" smooth="yes"/>
      <point x="369" y="1786"/>
      <point x="306" y="1703"/>
      <point x="306" y="1539" type="curve" smooth="yes"/>
      <point x="306" y="305" type="line" smooth="yes"/>
      <point x="306" y="169"/>
      <point x="289" y="137"/>
      <point x="169" y="137" type="curve" smooth="yes"/>
      <point x="153" y="137"/>
      <point x="135" y="138"/>
      <point x="115" y="139" type="curve"/>
      <point x="115" y="8" type="line"/>
      <point x="170" y="-6"/>
      <point x="217" y="-13"/>
    </contour>
  </outline>
</glyph>
<glyph name="approxequal" format="1">
  <advance width="1117"/>
  <unicode hex="2248"/>
  <outline>
    <contour>
      <point x="773" y="449" type="curve" smooth="yes"/>
      <point x="874" y="449"/>
      <point x="950" y="538"/>
      <point x="993" y="708" type="curve"/>
      <point x="843" y="750" type="line"/>
      <point x="821" y="678"/>
      <point x="787" y="638"/>
      <point x="745" y="633" type="curve" smooth="yes"/>
      <point x="681" y="633"/>
      <point x="451" y="715"/>
      <point x="347" y="715" type="curve" smooth="yes"/>
      <point x="254" y="715"/>
      <point x="179" y="647"/>
      <point x="128" y="516" type="curve"/>
      <point x="263" y="440" type="line"/>
      <point x="289" y="501"/>
      <point x="322" y="533"/>
      <point x="358" y="533" type="curve" smooth="yes"/>
      <point x="464" y="533"/>
      <point x="659" y="449"/>
    </contour>
    <contour>
      <point x="773" y="866" type="curve" smooth="yes"/>
      <point x="874" y="866"/>
      <point x="950" y="955"/>
      <point x="993" y="1125" type="curve"/>
      <point x="843" y="1167" type="line"/>
      <point x="821" y="1095"/>
      <point x="787" y="1055"/>
      <point x="745" y="1050" type="curve" smooth="yes"/>
      <point x="681" y="1050"/>
      <point x="451" y="1132"/>
      <point x="347" y="1132" type="curve" smooth="yes"/>
      <point x="254" y="1132"/>
      <point x="179" y="1064"/>
      <point x="128" y="933" type="curve"/>
      <point x="263" y="857" type="line"/>
      <point x="289" y="918"/>
      <point x="322" y="950"/>
      <point x="358" y="950" type="curve" smooth="yes"/>
      <point x="464" y="950"/>
      <point x="659" y="866"/>
    </contour>
  </outline>
</glyph>
